<svg xmlns="http://www.w3.org/2000/svg" viewBox="0 0 1744 1744" fill="none" shape-rendering="auto"><metadata xmlns:rdf="http://www.w3.org/1999/02/22-rdf-syntax-ns#" xmlns:xsi="http://www.w3.org/2001/XMLSchema-instance" xmlns:dc="http://purl.org/dc/elements/1.1/" xmlns:dcterms="http://purl.org/dc/terms/"><rdf:RDF><rdf:Description><dc:title>Notionists</dc:title><dc:creator>Zoish</dc:creator><dc:source xsi:type="dcterms:URI">https://heyzoish.gumroad.com/l/notionists</dc:source><dcterms:license xsi:type="dcterms:URI">https://creativecommons.org/publicdomain/zero/1.0/</dcterms:license><dc:rights>Remix of „Notionists” (https://heyzoish.gumroad.com/l/notionists) by „Zoish”, licensed under „CC0 1.0” (https://creativecommons.org/publicdomain/zero/1.0/)</dc:rights></rdf:Description></rdf:RDF></metadata><mask id="viewboxMask"><rect width="1744" height="1744" rx="0" ry="0" x="0" y="0" fill="#fff" /></mask><g mask="url(#viewboxMask)"><rect fill="url(#backgroundLinear)" width="1744" height="1744" x="0" y="0" /><defs><linearGradient id="backgroundLinear" gradientTransform="rotate(296 0.5 0.5)"><stop stop-color="#b6e3f4"/><stop offset="1" stop-color="#c0aede"/></linearGradient></defs><g transform="translate(531 487)"><path d="M554 727.7c-99.2 297-363.8 388.6-503.7 19.8-19.3-50.7 31-69.5 66.2-91.9 24.1-15.3 36.8-28.5 35.3-42.2-7-64.4-36.9-243.8-36.9-243.8l-3-5.8s.7-1.6-2.2 1.2c-3 3-9.9 34.2-37 34.2-24.5 0-49.2-10.9-61-86.3C7.2 285.6 9.6 214 40 201c12.5-5.3 24-7.2 35.2-.8 11.3 6.4-13-22 112-126C268.4 6.4 396.7-3.5 448.5 8 500.3 19.5 552 44.8 574.9 98.5c27.8 65-25.9 114.3-14 262.5-2.2 53.6.8 171.2-146.6 210.6-28 7.5-19.3 48.4 22.7 58.4 67 21 117 72.3 117 97.9" fill="#fff"/><path fill-rule="evenodd" clip-rule="evenodd" d="m554 266.2.1-1.4c4.1-36.4 8.2-71.7 27.1-103.4 6.5 4.4 5.7 10 3.7 15.2-19.9 51.2-18 104.4-16.2 157.6l.4 14c2.1 66.4-14.5 126.8-58.7 177.5-15.4 17.6-35.8 29.8-56.5 40.3-21.4 11-25.9 20.1-19.2 43.6l.8 2.6c1.4 3.9 2.8 7.9-1 11.8-4.5 4.6-9.5 3.3-14.8 1.8l-.6-.1a406.4 406.4 0 0 1-137-68.3c-6-4.4-10.8-10.3-15.5-16.1l-.3-.4c-2.5-3-3-7.8.5-10.4 3.3-2.5 5.8-.5 8.7 1.8l1 .9a145.5 145.5 0 0 0 76.3 31.7c13.4 1.4 26.6.9 40 .4 7.4-.3 14.8-.6 22.3-.5 10.2 0 18.7-4.7 26.7-9.2l2.8-1.6c27.8-15.5 54.3-32.8 72.2-60.7 16.1-25 25.9-52.2 31.6-80.9 7.2-36.1 6.6-72.7 6-109.8-.3-12-.5-24.2-.5-36.4ZM50.6 190.8c21.9-1.7 34 11.2 44.3 26.3a140.4 140.4 0 0 1 22.4 61.5c.5 3.7 1 7.6-1.2 11.3-4.5.6-4.9-3-5-5.6-.5-20.7-9.7-38.7-18.9-56.1-6.6-12.5-16.2-24.6-31.4-27.6-17.2-3.5-33 12-40.8 32.2-14.5 37.6-12 74.6 1.4 111 5.8 15.9 13.1 32.1 27.8 43.2 14.8 11.3 32.7 9.3 43.6-5.7l2-2.5c2-2.6 4-5.1 5-8 2.1-5.8 5.4-11.2 11.3-10.4 6.8 1 8 8.3 8.7 14a3661 3661 0 0 0 22 156.7l5.9 38.8c2.6 17.1 5.6 41.7 3.6 52.1a28 28 0 0 0-.3 2.2c-.4 2.8-.6 5-4.2 5.5-4.9.8-7-2-7.7-6.4-2.3-17-3-23.6-4-49.6-.9-25.2-5.6-50-10.4-74.9l-5-27c-5.2-30.8-10.3-62-10.8-97l-2 3c-7.6 11.3-13.7 20.5-24.5 24a40.5 40.5 0 0 1-46.1-12.5 127.8 127.8 0 0 1-28.8-55.8c-8.4-34-9.9-67.1.9-100.6 5.2-16.1 23.7-44.7 42.2-42Zm34.6 127.5c4.4 3.2 8.4 6 12-5.4-1.1-42.2-14.7-69.2-35.8-70.3 11.2 14.6 22 28.8 23 48.5a32.3 32.3 0 0 1-10.7-8.8c-2-2.2-4-4.4-6.5-6l-3-2.4c-4.8-3.6-9.7-7.4-17.8-4.5 3.8 5.8 9 10 14.3 14 6 4.7 12 9.3 15.6 16.5-10.6 7.7-15.2 17.7-9.7 29.9 4.8 10.5 11.9 19.2 25.9 19.8-.6-6.3-4.7-10.9-8.8-15.4-5-5.4-9.7-10.6-7.5-18.6 3.2-1.5 6.2.7 9 2.7Z" fill="#000"/></g><g transform="translate(178 1057)"><path d="M1313.4 698 9.7 694.5s46.7-304.1 171.4-445C237 186.4 283.5 124.1 408.4 79.3c21.4-7.7 53.1-88 70.1-96.4 16.1-8 5.5 52.2 20.4 64.4a871.6 871.6 0 0 0 96 69.6c58.9 37.2 86 114.9 86 114.9s26.4-74.9 48.4-111.7c15.5-26 67.3-102.4 67.3-102.4s94.7 29.6 129.8 55.7c21.3 15.8 8.8 12.3 105.4 67.5 83.9 47.9 166.2 179.1 210 288 46.6 115.8 71.6 269 71.6 269Z" fill="#fff"/><path fill-rule="evenodd" clip-rule="evenodd" d="M1307 698c-6.7-27-12.5-54-18.3-81.1-2.5-12-5-24-7.7-35.8-8.2-37-19-73-30.9-108.8a740 740 0 0 0-42-101.5 795.8 795.8 0 0 0-56-96.5c-30-43.3-62.6-84.5-105.8-115.4-31.4-22.4-66.2-39.2-100.9-55.9-12.3-6-24.9-3.2-37.2-.5l-4 1c-9.9 2-19.6 4.2-29.4 6.4a1956 1956 0 0 1-35.3 7.7c-5.1 1-7 4-8.5 8.2l-6 17.5c-4.1 12.2-8.3 24.4-12.1 36.7-2.6 8.2-7 11.8-15.7 11.6-7.4-.1-14.8 0-22.2.2-8 .1-15.9.3-23.8.1-14-.3-20.9 4.7-19.2 21.5 1.9 18 1.8 36.1 1.8 54.3 0 10.7 0 21.4.3 32.2 1 27.5 1 55.3.5 82.7-1 51.3-1 102.6-1 154 .1 53.2.2 106.5-1 160.2a22.3 22.3 0 0 1-11.8.2c-1.3-54.1-1.9-107.3-1.6-160.5.2-31.8 0-63.7-.1-95.6-.4-63.9-.7-127.8 1.8-191.7.2-3.5-1-6.7-4.9-6.8a645 645 0 0 1-6.9 7.6c-12.8 14-25.4 27.8-31.4 47.9-8.3-9.6-11.7-20.8-15.1-31.5-3.7-11.9-7.3-23.3-17-31.9-2 5.8-2 11.1-2 16.5v33l.2 69-.1 84.4c-.1 61-.2 121.9 0 182.8.1 7.4 0 14.8-.3 22.1-.4 18.6-.9 37.2 2 55.6h-14.2a960.2 960.2 0 0 1-1.9-62.5v-399c0-24-7.7-30.8-30.6-37-38-10-76.2-20.9-105.4-49.7-10.8-10.6-22.4-5.3-32-1l-1.2.6c-8.6 4-17.5 6.9-26.4 9.8-12 4-24 8-35.1 14.3-2.3 1.2-4.4 2.6-6.6 4a80 80 0 0 1-13.2 7.2l-2.2 1c-3 1.4-5.9 2.7-9.3-.5-3.8-3.4-3.7-7-2-11.5l5.7-17.1c5-15.2 10-30.3 16.6-45l1-2c1.4-2.3 2.7-4.6 1.4-7.7-4-2.7-7.7-.7-11 1.1l-1.8 1-2.2 1-2 1c-42.4 21.3-84.8 42.6-119.8 76a651 651 0 0 0-69 75.8 742.6 742.6 0 0 0-97.7 174.6c-23.6 58.8-44 119-54.3 182-2 11.6-3.8 23.2-5.7 34.9l-7.9 47.7c-5.5 1-10.8 1-17.1 1 4.6-33 9.9-66 16.2-98.9 2.3-11.9 5.3-23.6 8.4-35.3 1.8-7.2 3.7-14.3 5.3-21.5a708.6 708.6 0 0 1 20.3-66.6l1-2.7a831.7 831.7 0 0 1 84-179 584 584 0 0 1 57-76.2c38-43.3 80-82 132.7-106.3 28.6-13.2 55.2-29 81.6-45.8 7.5-4.8 11-11.7 14.6-18.6 1.4-2.5 2.7-5.1 4.3-7.6 14.7-23.5 30-46.4 53.1-62.8l1.6-1.2c2.9-2.3 5.7-4.4 9.7-2 3.6 2 3.4 5.1 3.3 8.4v2.8c.6 16.6 2 33.1 3.4 49.6.5 5.3 2.7 10 8 12.4 22.4 10.3 41.5 25.3 60.6 40.4 11.5 9 23 18 35.2 26a212.8 212.8 0 0 1 71 74.6c2 3.6 3.5 7.4 5.2 11.8l2.6 6.6c9.3-37.5 29.3-68.2 49.3-98.7l11.7-18c2-3.2 3.6-6.6 5.2-10 2.2-4.6 4.4-9.2 7.8-13.4a20 20 0 0 0 2.4-21.7c-2.2-4.7-3.4-9.6-1.5-14.7 8.5-2.6 13 2.3 17.8 7.4l1 1c9-5.8 8-13.3 3.3-21.3-1.6-2.8-3-5.5-.6-8.2 2.3-2.5 5.4-2.2 8.4-1.3 37.1 10.7 74 22 108.2 40.6 4.7 2.6 9.6 5 14.5 7.3 13.3 6.4 26.6 12.8 36.3 23.5 15.4 17 35.1 26.2 54.8 35.4 11.8 5.6 23.5 11 34.4 18.2a376 376 0 0 1 67.4 53.7c23 24.3 44.5 50 63.2 77.6 16.4 24 32 48.6 45.6 74.5a856.2 856.2 0 0 1 48 109.3c12.5 34.7 23.2 69.9 32.7 105.5 6.8 25.8 11.2 52 15.5 78.3 3.7 22 7.3 44 12.4 66-3.2 1-6.7 1-11.4 1ZM654.7 183.2a365 365 0 0 0-80.3-71.5 262.2 262.2 0 0 1-25.9-19.5c-12-9.8-24-19.7-38.2-26.2-16.8-7.6-25.8-18.4-26.4-36.5v-2.4c-.1-3.9-.2-7.8-.7-11.6-.8-7.6-9.7-11.6-14.4-5.9-1.6 2-3.5 3.6-5.3 5.3a37 37 0 0 0-6.9 7.5c-23 36.6-45.8 73.2-62.4 113.3-2.2 5.4-3.7 12.5.9 16.9 3.7 3.6 8.4 1.7 13-.2a82 82 0 0 1 2.4-1l19.5-7.4c13.1-5.2 26.3-10.3 39.8-14.4 14.3-4.3 25.2-1.8 35.3 9.5a106 106 0 0 0 38.3 26c15.9 7 32.2 12.3 48.5 17.7 14.2 4.7 28.4 9.4 42.3 15.1 17.1 7 33 16.1 32.8 38.5 0 3.5.8 7 6.6 6.5 2.9-8 2.9-16-1.1-24l-5.2-10.6c-4-8-8-16.2-12.6-25.1ZM836 38.3l9 3.2L889.5 62a25418.5 25418.5 0 0 1 24.2 11c3.2 1.5 6.7 3 6.7 7.1 0 4.4-3.5 5-6.7 5.6l-1.8.4a992 992 0 0 0-14.5 3.6c-12.4 3.1-24.8 6.2-37.5 8.1-26.6 4-41 14.7-48.3 40.3-.9 3.2-2 6.4-3.2 9.5-1.6 4.5-3.1 9-4 13.4-2.5 12-10.2 13.2-19.5 14l-17.7 2c-9.7 1-19.4 2.2-29.2 2.8-8 .5-12.6 4.6-15.6 11-2.3 4.8-4.9 9.4-7.4 14-4.8 8.7-9.7 17.4-12.6 27-1.4 4.4-3.4 11-11.7 10.8 2-24 8-47.3 17.5-69.3 6.5-15 15.6-28.3 24.7-41.5 7.6-11.2 15.2-22.4 21.3-34.4 11.2-22.5 27.6-40.4 44.2-58.3l5.2-5.7c3.5-3.9 5.9-5 10.6-3.2 7.3 3 14.6 5.6 22 8.2Z" fill="#000"/><path d="M219.1 698c1.6-9.2.2-18.7.6-28 1.2-39.1 5.8-77.8 12-116.5A905 905 0 0 1 246 480c6-24.5 11.8-49.4 23-72.5 6.8-13.6 10.2-28.8 21.5-40 2.4-2.4 4.4-5.9 8.3-4 4.3 2 4 6.1 2.4 10-3.3 8.3-5.8 17.1-10.5 24.6-14 22.5-18.9 48.2-25 73-7.6 31.6-11 64.3-16.3 96.5-7 42.5-8.6 85.4-10.7 129.3-6.3 1.1-12.4 1.1-19.6 1.1ZM1122.7 698c-6.5-30.5-11.3-61.1-17.6-91.4-4.1-20-11-39.2-15.4-59-6.8-30.3-19-58.7-30.2-87.4-6.7-17.1-15.2-33.5-22.8-50.3-6.3-13.8-12.6-27.7-18.7-41.5-1.3-3.1-2.7-6.5 1.5-9 4.3-2.6 7.6-.5 9.8 2.7 5 6.9 10 13.8 13.9 21.3 16 32.2 32.7 64.2 43.8 98.4 7.4 22.8 15.5 45.6 21 69.2 3.8 16 8 32 11.7 48 7.2 32.3 12 65 14.6 98-3.4 1-7 1-11.6 1Z" fill="#000"/><path fill-rule="evenodd" clip-rule="evenodd" d="M912 320.4c-5.8-35.4-5-69 11.3-103.1 29.1 32.8 28.4 71 27.8 108.3l-.2 15.7c5 1.9 7.7.1 10.1-1.5l2.4-1.4c12.5-5.5 16.3-3.2 18.4 10.7 3.8 25.2 4 50.7 4.2 76.1l.1 11c0 6.9-3.7 11.9-8.5 15.1a194 194 0 0 0-34.6 33c-6.6 7.3-13.2 14.7-20.4 21.4-9.9 9-26.7 12-37.6 3.7l-10.5-7.9C858.7 489.7 843 478 828 465.1a49 49 0 0 1-18.1-48.5c1.7-10.4 2.6-21 3.5-31.7.8-8.4 1.5-16.8 2.6-25.2 2.8-20.7 6.7-23.1 25.5-14.9 1.7.7 3.4 1.2 5.1 1.6 4.5 1.2 9.2 2.5 13.3 8l2-15c1.6-12 3.1-23.1 3-34.4v-.6c0-1.6 0-3.6-.8-4.2-18-12.2-14.7-28.2-6.7-43.7l1-2a91.9 91.9 0 0 0 11.9-31.7c0-1.2 1.1-2.3 2-3.4l1.2-1.4 1.5.3 1.5.4c1.5 10.4 7 18.7 12.4 27.1 4.6 7.1 9.2 14.2 11.5 22.5 2.6 9.9 1 18.2-6.1 24.5-7 6.3-8 13.6-7 22l.7 6c.6 4.7 1.2 9.5 1.4 14.3.9 17.7 3.6 19.9 22.9 16.4 1.9-10 1.3-20-.3-31.1Zm29.3 142c1-1 2.2-1.9 3.3-2.8a74 74 0 0 1 7.5-5.9c14-9 20.8-20.6 18.4-38.3-1.3-9.7-1-19.5-1-29.4.2-5.1.2-10.2.1-15.3v-2.4c0-4.6 0-9.3-4-13-4.6 1-8.9 3-13.1 5-6 2.7-12 5.4-18.5 5.4-7.4 0-14.8.2-22.2.5-23.6.8-47.2 1.7-69.9-7.8-7.8-3.3-10.9-.8-11.3 7.4-1 20-3.5 39.8-7.1 59.4l-.1.4c-1.2 6.3-2.5 13.7 3.6 18.8a7267 7267 0 0 0 65.2 52.8c7.8 6.4 15.8 5 21.1-2.6a148 148 0 0 1 13.9-16c4.7-5 9.6-10.2 14-16.2ZM921 274.7c1.2.6 2.5 1.3 3.8.8l12-1.5c-8 8.2-12.9 8.3-21.1.8 1.9-1.9 3.6-1 5.3-.1Z" fill="#000"/></g><g transform="translate(266 207)"><path d="M202 925.6c-22 4.7-38.8 1.3-53.3-10.7 1.7-6.4 7.8-8.5 12.3-12.2 4-3.4 10-4.7 13.5-12.9-15 9.2-28.4 16.5-43.2 20.8-28.5 8.3-56.1 9-81-10.6a49.6 49.6 0 0 1-8.8-9.2c-6.4-8.5-4.9-13.4 5.3-17.1 12.6-4.6 26-6.1 38.6-11.9 35.2-15.8 52.7-43.6 61.7-79.2 15.8-62.2 15.8-126.1 22-189.5 5.6-58.3 4.2-117 15.3-175.2 13.3-70 38-134.6 78.2-192.6a331.1 331.1 0 0 1 124.8-109.6 243.8 243.8 0 0 1 138.1-25c37.3 4 70.8 16.4 101.1 37.8 11.6 8.2 20.4 4 30.7-2 25.9-15.6 52.7-26.6 84.1-17 14.3 4.3 25.5 11.8 28.9 26 4.4 18.4 6.2 37.4-12.4 50.9-1.6 1.1-2.7 3-5.3 5.6 18.5 3.2 34 10.2 48.6 19.4 26.3 16.8 40.6 42 51.9 70 16.3 40.7 17.9 75.2 14.4 116.8-2 24-14.7 56.2-22.8 79.5-1.4 4-4 6.2-8.6 6.4-.8-1.1-2.3-2.3-2.2-3 5.2-23-11-30.4-27-38.6a109.1 109.1 0 0 1-56.5-62.3c-.7-1.8-2.6-3.2-3.8-4.7-7.8.8-9.3 8.9-14.6 11.7-20 10.6-39.7 19.5-64 10.3-12.1-4.7-24.8-7.6-35.6-15.3-7.1-5-10 1.3-13 5.5a80.5 80.5 0 0 1-42.6 30.6c-25.2 7.5-45.7-2.3-65.5-15.9l-11.1-7.3c-5.4 8-6.8 16.8-9.5 25-11.7 34.4-39.2 55.5-76.6 51-8.2-.9-12 1.1-14 8.5-4 15-15.8 19-29.2 20.3-4.8.7-9.5-1.2-12.4-5a89.1 89.1 0 0 0-21.9-17.5c-24-14.6-38.4-2.6-49.4 17.2-17.1 31-16.5 64.7-12.4 99 2.6 22.2 11 41.3 23.2 59.5 17.2 25.8 40.2 22.9 61.4 11.8 5.1-2.6 7-8 8.7-13.5 1.4-4.5 4.7-8.7 10-8.7 6.5 0 7 6.3 7.6 10.4 3.9 28 13.6 55.3 11.9 84.4-1 17 3.2 33.6.8 51.5C394 822.2 377 848 358 872.8a186.7 186.7 0 0 1-82.1 60.4C261 939 245 943.5 228.6 940c-3.8-.8-8.8-.6-10.2-6.1-1.5-5.8 2.2-8.7 6.2-11.3 3.5-2.3 7.2-4.1 9.6-8.4-10.7 3.8-19.6 11.2-32.2 11.4Z" fill="#000"/><path d="M419 185.5c-7.7 1.6-12.2 6.8-16.5 13-8 11.7-5.4 24.7-5.3 37.2.2 13.5 7.3 23.2 19.2 29.3 3.1 1.6 8 1 7.8 7.5-4.9 1.4-10.7 1.6-14.2-1.4-12.1-10.4-20.8-4.2-29.6 4.5-3.3 3.3-6.8 6.4-10.2 9.5-27.8 25.8-54.2 52.6-68.2 89-3.7 9.8-.2 15.2 7.6 19.2 4.2-1.6 3.8-5 4.9-7.7a209.8 209.8 0 0 1 34.9-58.7c2.7-3.3 5.9-6.2 9.5-3.3 4.3 3.3.8 6.6-2 9.4-13.5 14.4-22 32-31.5 49.1-4.1 7.5-2.9 15.8-2 23.8.4 4 3.7 7.2 7.7 7.4 3.7.4 4.6-2.8 5.6-5.8a271.5 271.5 0 0 1 38.5-74 283.6 283.6 0 0 1 112.8-94c14.3-6.7 30.5-9.6 43.4-20.1-19.7-14.9-19.7-14.9-41.6-10-17.2 3.6-34.6 6.1-51 12.8 19.3-25 50.4-18.5 76-27-2.3-5.6-6.2-6.5-10-7-19.7-2.8-39.4-5.6-59.2-8-8.7-1-17 .6-26.6 5.3ZM612.9 208.6c21.6 4.7 44.3.4 65.7 6.7 12.4 3.7 25 3.3 37.4 4 8.8.5 17.7-1.9 19.3-13-7.2-7.4-20.6 3-25.8-10.8 7.8-1.4 14.7-1.6 21-4 24.4-9.2 40-25.3 31-53.3-5.6-17.5-32.7-28.4-55-23.4-37.6 8.3-65.4 32.2-94 56.1l7 14.6c14.6-4.8 27.3-13.5 41.4-18.9 13.9-5.3 26.9-15.9 44.6-11.5-3 6.3-8.3 8-12.7 9.3-17.6 5.4-33.9 13.6-50.7 20.7-11.7 4.9-24 9.2-29.2 23.5ZM567.9 211.8c10.3-2 20.8-2.3 30.2-8.7 5.6-3.7 11.3-7 10.6-14-.8-8.2-7-13-14.8-13.5-19.6-1.5-39 .1-57.8 6.7-7.4 2.6-13 6.4-10.9 15.7 2.2 9.1 8.1 13.7 17.3 13.9 7.7.2 15.4 0 25.4-.1ZM813.2 282.7c2.3.6 3.4 4 9.2 2.4-9-27.4-39.3-29.4-57-48.5 24.4 2.5 40.6 16.8 58.8 27.7-4.3-24-26.4-30.3-42.8-39.6-21.8-12.5-26.2-15.6-57.5 3.5a357.8 357.8 0 0 1 89.3 54.5Z" fill="#fff"/></g><g transform="translate(791 871)"><path d="M79.1 76.2c7.7-15.2-6-20-13-28.8-12 28.2-9.2 55.9 6.1 65 1.2-11.6-.3-23.8 7-36.2Z" fill="#fff"/><path fill-rule="evenodd" clip-rule="evenodd" d="M88.8 107v-9.7c1-2 1.5-4.2 1.9-6.2.7-3.4 1.3-6.5 4.3-8.8 4.5-.1 8.3 1.9 12.1 4 3.3 1.6 6.6 3.4 10.3 3.8h1c3 .5 6.3.9 7.8-3 1.6-4.1.2-7.7-3.8-9.5C103.6 69 91.2 53.7 78.9 38c-8.4-10.9-20.8-8.3-28.4 3.9-11.2 18-8.4 37.6-5.8 56l.1 1c2 13.6 9.3 27.7 24.9 33.3 11.4 4 18.4-.2 19-12.2l.1-13ZM72.2 53.5c6.5 5.8 12.6 11.3 7 22.7-5.5 9.4-6 18.7-6.4 27.7a152 152 0 0 1-.6 8.5c-15.3-9.1-18.2-36.8-6.1-65 1.8 2.2 4 4.2 6.1 6.1Z" fill="#000"/></g><g transform="translate(653 805)"><path fill-rule="evenodd" clip-rule="evenodd" d="M387.7 121.5c13.4-17.5 50-64.5 50-64.5s14 50.4 11.2 79.3a252 252 0 0 0-1 18.5c-.6 26-.6 27-78.6 119-33.1 39-95.3 41-117.3 36.7-73-14.6-160.3-130-180-180.6C54 83.4 0 0 0 0l31.2 5s39.1 23.2 56 67.3c8.7 22.7 59.7 88.2 134 52.4 17.7-8.6 35-16.7 55.5-14.5h.1c7.3.8 13.3 1.4 16 8.7 30.8-24.4 46.8-5.3 62.3 13 3.4 4 6.7 8 10.1 11.5 9.6-3.2 14.2-10 18.8-16.6a111 111 0 0 1 3.7-5.3Zm-130.8 49c7.8 9 72.3 6.5 74.3-7.7 1.6-12-4.3-15.3-12.2-19.6a82.2 82.2 0 0 1-7.7-4.6c-18.3-12.8-78.7 4-54.4 32Z" fill="#000"/></g><g transform="translate(901 668)"><path d="M45.4 194.6c-5 .2-8.7-.4-12-2.9-2.8-2-3.2-4.8-2.6-7.9.5-3.3 3.2-3.8 5.8-3.6 14.1.7 28-.5 41.1-6.4 3.2-1.5 6-.2 7.7 2.6 1.7 3.1 2 6.3-.8 9.4-5 5.8-11.2 9-19 8.8H45.5Z" fill="#000"/></g><g transform="translate(610 680)"><path d="M407.4 122.5c13 .3 25.4 1.1 37.6 2.5 3 .4 5 3.3 5 6.7 0 3.3-1.7 5.6-4.7 7-11.2 4.8-22 8.2-33.7.2-6.5-4.5-9-8.7-4.2-16.4ZM247.6 117c7 0 7.8 3.8 7 8.5-2 10.2-20 22.4-30.4 20.5-5.9-1-10.5-4-10.7-10.5-.2-6.7 4.8-8.2 10.3-8.4 9-.3 15.8-5.2 23.8-10ZM215.1 76.6c5-12 9-29.4 24.1-22.5 20.7 9.4 13.9 30.7 9.7 47.4-1.6 6.3-14.5 15.9-18.3 14.3-16.3-6.8-19.2-21.7-15.5-39.2ZM442 113.4c-8.6 7.5-17 7.6-22.2-1.5-9-16-8.6-32.8 3.3-47.2 2.5-3 13.8-3.6 16.3-1 14 15 14.6 31.8 2.6 49.7Z" fill="#000"/></g><g transform="translate(610 680)"></g><g transform="translate(774 657)"><path d="M107.5 34.6c4.3 5.6 14.4 8.2 8.3 16.8-5.8 8.2-15.6 8.7-24.3 6.4C82 55.5 73 52 64.4 47.2c-12.1-7-23.1-6.2-34.8.2-6.6 3.6-16 9.8-20.4 1.9-5-9.2 7-11.4 12.8-15.4 18-12.8 38.8-14 60-12.2 9.6.8 16.7 7.7 25.5 13ZM231.2 44.2c15.9-7.4 30.7-14.8 48.2-12.7a47.6 47.6 0 0 1 30 15.2c2.9 3.1 5 7.5 1.4 11.4-3.6 3.7-8.6 4.5-12.5.4-10-10.7-20.3-8.4-30.7-1.4-9 6.1-19.6 5.5-29.4 6.4-10.7 1-13.4-6.6-7-19.3Z" fill="#000"/></g><g transform="translate(0 559)"></g></g></svg>