<svg xmlns="http://www.w3.org/2000/svg" viewBox="0 0 1744 1744" fill="none" shape-rendering="auto"><metadata xmlns:rdf="http://www.w3.org/1999/02/22-rdf-syntax-ns#" xmlns:xsi="http://www.w3.org/2001/XMLSchema-instance" xmlns:dc="http://purl.org/dc/elements/1.1/" xmlns:dcterms="http://purl.org/dc/terms/"><rdf:RDF><rdf:Description><dc:title>Notionists</dc:title><dc:creator>Zoish</dc:creator><dc:source xsi:type="dcterms:URI">https://heyzoish.gumroad.com/l/notionists</dc:source><dcterms:license xsi:type="dcterms:URI">https://creativecommons.org/publicdomain/zero/1.0/</dcterms:license><dc:rights>Remix of „Notionists” (https://heyzoish.gumroad.com/l/notionists) by „Zoish”, licensed under „CC0 1.0” (https://creativecommons.org/publicdomain/zero/1.0/)</dc:rights></rdf:Description></rdf:RDF></metadata><mask id="viewboxMask"><rect width="1744" height="1744" rx="0" ry="0" x="0" y="0" fill="#fff" /></mask><g mask="url(#viewboxMask)"><rect fill="url(#backgroundLinear)" width="1744" height="1744" x="0" y="0" /><defs><linearGradient id="backgroundLinear" gradientTransform="rotate(291 0.5 0.5)"><stop stop-color="#c0aede"/><stop offset="1" stop-color="#ffd5dc"/></linearGradient></defs><g transform="translate(531 487)"><path d="M554 727.7c-99.2 297-363.8 388.6-503.7 19.8-19.3-50.7 31-69.5 66.2-91.9 24.1-15.3 36.8-28.5 35.3-42.2-7-64.4-36.9-243.8-36.9-243.8l-3-5.8s.7-1.6-2.2 1.2c-3 3-9.9 34.2-37 34.2-24.5 0-49.2-10.9-61-86.3C7.2 285.6 9.6 214 40 201c12.5-5.3 24-7.2 35.2-.8 11.3 6.4-13-22 112-126C268.4 6.4 396.7-3.5 448.5 8 500.3 19.5 552 44.8 574.9 98.5c27.8 65-25.9 114.3-14 262.5-2.2 53.6.8 171.2-146.6 210.6-28 7.5-19.3 48.4 22.7 58.4 67 21 117 72.3 117 97.9" fill="#fff"/><path fill-rule="evenodd" clip-rule="evenodd" d="m554 266.2.1-1.4c4.1-36.4 8.2-71.7 27.1-103.4 6.5 4.4 5.7 10 3.7 15.2-19.9 51.2-18 104.4-16.2 157.6l.4 14c2.1 66.4-14.5 126.8-58.7 177.5-15.4 17.6-35.8 29.8-56.5 40.3-21.4 11-25.9 20.1-19.2 43.6l.8 2.6c1.4 3.9 2.8 7.9-1 11.8-4.5 4.6-9.5 3.3-14.8 1.8l-.6-.1a406.4 406.4 0 0 1-137-68.3c-6-4.4-10.8-10.3-15.5-16.1l-.3-.4c-2.5-3-3-7.8.5-10.4 3.3-2.5 5.8-.5 8.7 1.8l1 .9a145.5 145.5 0 0 0 76.3 31.7c13.4 1.4 26.6.9 40 .4 7.4-.3 14.8-.6 22.3-.5 10.2 0 18.7-4.7 26.7-9.2l2.8-1.6c27.8-15.5 54.3-32.8 72.2-60.7 16.1-25 25.9-52.2 31.6-80.9 7.2-36.1 6.6-72.7 6-109.8-.3-12-.5-24.2-.5-36.4ZM50.6 190.8c21.9-1.7 34 11.2 44.3 26.3a140.4 140.4 0 0 1 22.4 61.5c.5 3.7 1 7.6-1.2 11.3-4.5.6-4.9-3-5-5.6-.5-20.7-9.7-38.7-18.9-56.1-6.6-12.5-16.2-24.6-31.4-27.6-17.2-3.5-33 12-40.8 32.2-14.5 37.6-12 74.6 1.4 111 5.8 15.9 13.1 32.1 27.8 43.2 14.8 11.3 32.7 9.3 43.6-5.7l2-2.5c2-2.6 4-5.1 5-8 2.1-5.8 5.4-11.2 11.3-10.4 6.8 1 8 8.3 8.7 14a3661 3661 0 0 0 22 156.7l5.9 38.8c2.6 17.1 5.6 41.7 3.6 52.1a28 28 0 0 0-.3 2.2c-.4 2.8-.6 5-4.2 5.5-4.9.8-7-2-7.7-6.4-2.3-17-3-23.6-4-49.6-.9-25.2-5.6-50-10.4-74.9l-5-27c-5.2-30.8-10.3-62-10.8-97l-2 3c-7.6 11.3-13.7 20.5-24.5 24a40.5 40.5 0 0 1-46.1-12.5 127.8 127.8 0 0 1-28.8-55.8c-8.4-34-9.9-67.1.9-100.6 5.2-16.1 23.7-44.7 42.2-42Zm34.6 127.5c4.4 3.2 8.4 6 12-5.4-1.1-42.2-14.7-69.2-35.8-70.3 11.2 14.6 22 28.8 23 48.5a32.3 32.3 0 0 1-10.7-8.8c-2-2.2-4-4.4-6.5-6l-3-2.4c-4.8-3.6-9.7-7.4-17.8-4.5 3.8 5.8 9 10 14.3 14 6 4.7 12 9.3 15.6 16.5-10.6 7.7-15.2 17.7-9.7 29.9 4.8 10.5 11.9 19.2 25.9 19.8-.6-6.3-4.7-10.9-8.8-15.4-5-5.4-9.7-10.6-7.5-18.6 3.2-1.5 6.2.7 9 2.7Z" fill="#000"/></g><g transform="translate(178 1057)"><path d="M1301.3 694.3H182L6 692s25.8-236.8 36.7-268.4C69 348 95.3 256.1 163.2 211.3c29.6-19.6 53.3-37 55.2-47.6 1-5.3 97.8-99.7 115.3-109.2C417.2 8.9 498.5 36 498.5 36l.9 18.8s1.9 22.7 6.9 29.4c22.7 31 101.3 50.4 154.1 54.7 66.3 5.3 138.5-24.7 140.7-46.7 1.7-17.3-21.4-48.5 11.8-61.6C838.5 20.6 914.5 27 941 37.3c34.1 13.2 99 53.5 130.3 93.4 12.2 15.6 14.7 59.5 56.3 72.4 62 19.1 109.6 108.7 135.3 220.5 13.1 57.2 38.4 270.7 38.4 270.7Z" fill="#fff"/><path d="M961 694H845.9l4.8-188.7s2.5-265.3-4.8-355.8c-2.4-29-20.3-69.5-32-57.8-68.3 68.3-163.6 53.8-172.2 54.6-23.3 2.2-61.7-7.6-106-28-12.3-5.8-40.7-39.9-40.7-39.9s-41.7 60.7-44.3 122c-4.2 100.4 4.9 268.3 8 338a7165 7165 0 0 1 4.5 155.6h-115s18.4-319.6 0-499.6c-8-76.7-122.7-9.1-118.9-35.4 7-48.6 106.4-118.4 157.5-132.2 20.1-5.4 109.7 5.9 109.7 5.9s5.2 51.2 28.4 70.8c10 8.4 57.2 30.6 105 35.9 55.3 6.1 113.4-6.2 146.7-22.8 44.3-22-17.2-48 22.6-75.2 39.6-27 62-16.7 92.8-15.7 95.4 3 209.3 131.5 191.9 137.3-25.2 8.6-120.3-32.8-130.5 39.5C939 305.2 961 694 961 694Z" fill="#000"/><path d="m843.7 694.3-377.5-.3s-13.5-434.3-13.5-523.6c0-74 36.6-154.8 52-130.7 28.5 44.5 76.5 55 149 58.3 115 5.1 121.6-38 137.3-46.8 31.4-17.9 52.7 56.4 52.7 133v510.1Z" fill="#fff"/><mask id="bodyVariant10-a" style="mask-type:luminance" maskUnits="userSpaceOnUse" x="453" y="259" width="392" height="433"><path d="m467 692-14-432.5h392V692H467Z" fill="#fff"/></mask><g mask="url(#bodyVariant10-a)"><g transform="translate(396 278)" style="mix-blend-mode:difference"><ellipse cx="258.1" cy="202.6" rx="100.1" ry="98.5" stroke="#fff" stroke-width="15"/><path d="M175.5 146.8a428 428 0 0 1-7.7-8.2 186.2 186.2 0 0 1-21.8-27.9c-1.8-3.1-2.9-5.5-3.4-7.2 1.8.1 4.3.6 7.8 1.7 8 2.6 18.8 7.7 32 15.1 3.7 2 7.5 4.3 11.5 6.7 4.2-3.4 8.7-6.6 13.4-9.3-6.1-3.8-12-7.3-17.5-10.4A200.1 200.1 0 0 0 155 91c-4.7-1.5-9.1-2.5-13-2.5-3.8 0-8.7.8-12 5-3.3 4-3 9-2.2 12.7 1 3.8 2.8 8 5.3 12.1a200 200 0 0 0 23.6 30.4c3.4 3.7 7 7.6 11 11.6a98 98 0 0 1 7.8-13.5Zm-33.2-45.2Zm-1.5 2h-.1ZM329.3 271.8c-3.7 3.6-7.6 7-11.9 10.1a519 519 0 0 0 26.4 16 200 200 0 0 0 34.8 16.3c4.6 1.5 9 2.5 13 2.5 3.8 0 8.7-.8 12-5 3.2-4 3-9 2.1-12.7-.9-3.8-2.8-8-5.3-12.1a200 200 0 0 0-23.6-30.4 529 529 0 0 0-23.3-24 97 97 0 0 1-6.3 15c6.9 6.7 13 13.1 18.5 19.1a186.2 186.2 0 0 1 21.8 27.9 35 35 0 0 1 3.4 7.2 35 35 0 0 1-7.8-1.7c-7.9-2.6-18.8-7.7-32-15.1-6.7-3.8-14-8.2-21.8-13.1Zm62 31.8Zm1.5-2Z" fill-rule="evenodd" clip-rule="evenodd" fill="#fff"/><path d="M250 223.7c-72.4-57.7-123.5-114-114.2-125.6Z" fill="#fff"/><path d="M250 223.7c-72.4-57.7-123.5-114-114.2-125.6" stroke="#fff" stroke-width="15"/><path d="M397.7 307.1c-9.3 11.7-75.5-25.7-147.8-83.4Z" fill="#fff"/><path d="M397.7 307.1c-9.3 11.7-75.5-25.7-147.8-83.4" stroke="#fff" stroke-width="15"/></g></g><path d="M1295 694c-6.2-21.3-11.5-73.3-14.9-102-2.4-20.7-19.6-166.5-38.5-217.4-11.6-31.1-22.4-63-39.5-92.1-11.7-20-29.3-34.3-46-48.9a513 513 0 0 0-67-48.2c-30.9-19.2-63.4-23-97.6-11.7a32 32 0 0 0-21.9 24.3c-13.4 53.3-9.1 107.6-9.8 161.6-.8 69.8 3.1 139.5 5.2 209.2 1.8 57.2 0 66.7-.6 125.2h-14.5c-.9-32.2-.4-15.3-.6-47.5-.2-47.6-.8-95.1-1.6-142.7-.6-37.8-.3-75.7-2.8-113.5-2.6-39.6-2.7-79.1.7-118.6 2.5-28.2.1-57 11.3-84.3 9.4-23 28.3-31.8 49.9-33.5 22.4-1.7 45.7-4.8 69.8 9.3-4.8-16.6-15-24.7-22.6-34-28-34.2-65.5-55.5-103.6-76.8-39.3-22-80.7-19-122.6-17.4-6.5.3-12 3.8-17.8 6.7-7.5 4-15.3 7.3-26.6 4.8 9.5-13 22.1-17.3 35.1-21.1 37.1-10.8 73-5.2 95.7-1.8C943 28 1042.7 76 1089.7 151.5c22.3 35.9 85.8 36.4 143.6 157.6a528 528 0 0 1 34.7 100.7c10.9 44 39.5 252.6 39.5 284.2H1295ZM15.3 694c2-6.9 2.7-9.9 3.6-15.7 4.6-28.4 5.5-57.6 8.9-86.3 2.4-20.6 3.3-41.4 6-62 7.2-52.7 15.6-105 32.5-155.4 10.7-31.7 22.4-63 39.5-92.1 11.7-20 29.3-34.3 46-48.9 20.7-18 43.5-33.7 67-48.2 30.9-19.2 63.4-23 97.6-11.7a32 32 0 0 1 21.9 24.3c13.4 53.3 9.1 107.6 9.8 161.6.8 69.8-3.1 139.5-5.2 209.2-1.8 57.2.5 125 .5 125l14.6.2c.9-32.2.4-15.3.6-47.5.2-47.6.8-95.1 1.6-142.7.6-37.8.3-75.7 2.8-113.5 2.6-39.6 2.7-79.1-.7-118.6-2.5-28.2-.1-57-11.3-84.3-9.4-23-28.3-31.8-50-33.5-22.3-1.7-45.6-4.8-69.7 9.3 4.8-16.6 15-24.7 22.6-34 28-34.2 65.5-55.5 103.5-76.8 39.4-22 80.8-19 122.7-17.4 6.5.3 12 3.8 17.8 6.7 7.5 4 2.3 11.5 6.4.7 5.8-15-2-13.2-15-17-37-10.8-74-4-111 .5-7.4 1-14.8 4.4-21.5 8-51.4 27.8-116 77.2-138.6 117.6-12 21.6-30.7 32.8-47.5 47.7C111 252.3 95.3 263.8 74.6 309a573.6 573.6 0 0 0-34.7 100.7c-11 44-19.1 88.6-22.8 134.2-2.7 32.4-7.4 64.8-10.3 97.4-2 22.8-3.5 39.7-3.5 52.6h12Z" fill="#000"/><path d="M1131.8 694c2-23.7-8-84.7-12.5-115.7-3.3-22.6-3-46-11.4-67.7-2.1-5.4-1.5-12.4 5.3-13.5 6.4-1 9.2 3.5 10.7 10.8 7.8 38.3 11.3 77.2 16 116 3.5 30 7.8 60 8.5 70l-16.6.1ZM193.3 694c1.4-23.6 8-84.7 12.6-115.7 3.3-22.6 3-46 11.4-67.7 2.1-5.4 1.5-12.4-5.3-13.5-6.4-1-9.3 3.5-10.7 10.8-7.8 38.3-11.3 77.2-16 116-3.6 30-5.7 70.1-5.7 70.1h13.7Z" fill="#000"/><path d="M467.4 694.3S452.7 266.8 452.7 179c0-72.8 36.6-163 52-139.2 28.5 43.8 77.2 58.4 149.7 61.5 115 5 120.9-41.3 136.6-50 31.4-17.6 52.7 66 52.7 141.4V694" stroke="#000" stroke-width="15"/></g><g transform="translate(266 207)"><path d="M798.9 350c-49.4 15.4-99.5 21.4-149.5 28.3-31.9 4.4-63.9 1.6-95.8 2.6-22.5.7-43.7-6.4-64.9-12.4-7.7-2.2-11.3-.7-15.1 6.3-15.1 28-27 57.6-35.3 88.3-5.6 20-14.4 39-21.9 58.4-5.1 13.4-10.7 26.7-15.5 40.3-2.7 7.5-7.2 11.5-15.1 10.7-8.2-1-12.2-7-12-14.2.9-18.8-5.6-36-10.8-53.4-5.7-19.3-32.5-37.3-52.3-34.5-14.2 2-19 15.8-27.8 24.5-3.8 3.8-4.5 10-10.2 13.3-9.5-8.1-9.5-19.8-10.6-30.3-3.8-35.5.6-69.2 29.8-94.3a64.4 64.4 0 0 1 25.4-14c9.2-2.2 9.8-6.7 10.2-14.2 2.8-54.8 21-103.7 64-139 36.9-30.2 81.3-36.3 127.5-24.3 8.5 2.2 17.6 2 25.8 6.6 5.2 3 8.4-2.7 11.7-5.6 26-22.8 54.5-41.8 86-56 19.8-9 40.4-10.4 61.3-8.5a166.3 166.3 0 0 1 80.4 29c15.9 11 28.5 25.4 38.8 41.6 4 6.2 8.2 10.2 15.6 11.6a82.2 82.2 0 0 1 60.6 45.3c9.2 18.2 9.3 37.7 7.4 57.3a78.3 78.3 0 0 1-4.2 21.2c-5.3 13.2-9.7 24.4-3.5 40.4 7.3 19-2.3 38.9-13.6 55-14.4 20.8-35.2 35.7-53.5 53-1.1 1-2.9 1.4-5.7 2.8-8.5-18.3-14-36.8-14.7-56.3-.8-24.2-5.8-48.2-2.8-72.5.8-6.7-1.7-9.8-9.7-7Z" fill="#000"/></g><g transform="translate(791 871)"><path d="M159.8 103c-3.2-2.8-6-6.4-9.7-8.1-18-8.5-31.4-21.7-44-36.9-14-16.7-28-34.4-49-43.4-8-3.5-16.3-7.8-24.7 0C22 24.1 9.6 33 12.4 49.1c2.5 14 11 24.6 22.6 33.8 26.5 21.1 58 26.5 90 30.7 11.8 1.6 25.3 1.5 34.8-10.6Z" fill="#fff"/><path fill-rule="evenodd" clip-rule="evenodd" d="M104.8 38.9a85.7 85.7 0 0 0-24-23.6c-4.2-4.4-9.2-6.3-14-8-2-.8-4-1.5-5.8-2.4-22-10.3-48.1.7-57.4 23.3a50.7 50.7 0 0 0 16.1 58.2c20.7 17.7 45.5 30 72.1 35.7 22.7 5 45 7.8 67.9.5 8.8-2.8 16-7.1 17.1-16.5 1.1-8.2-3.5-14.4-10.8-18.7-1.5-.9-2.9-2-4.3-3.2-1.5-1.2-3-2.4-4.8-3.4-19.5-11.2-38.2-23-52-42Zm52 61.3 3 2.8c-9.5 12.1-23 12.2-34.9 10.6-31.8-4.2-63.4-9.6-90-30.7a55.9 55.9 0 0 1-22.5-33.8C9.9 34.8 19.5 26 29 17.7l3.4-3c8-7.4 15.7-4 23.3-.7l1.5.6c19.9 8.6 33.4 24.8 46.6 40.7L106 58A131.4 131.4 0 0 0 150.1 95c2.5 1.2 4.6 3.2 6.7 5.3Z" fill="#000"/></g><g transform="translate(653 805)"></g><g transform="translate(901 668)"><path d="M59.8 81.5c4.5-7.8 8-15.1 12.7-21.7 3-4.2 8-7.4 13-3.1 4.9 4 0 7.2-2 10.7a227.9 227.9 0 0 0-31.3 82.3c13-2 25-1.4 30.4 11 5.6 12.7-2.5 23.2-10.6 31.8-7.3 7.7-16.6 13.5-29 7.7C42.8 184 69.6 185 65.6 167c-2.6-2.6-4.5-1.7-6.6-1.2-19.7 4.3-22.8 2.4-20.3-18.2a214.6 214.6 0 0 1 21.1-66Z" fill="#000"/></g><g transform="translate(610 680)"><path d="M407.4 122.5c13 .3 25.4 1.1 37.6 2.5 3 .4 5 3.3 5 6.7 0 3.3-1.7 5.6-4.7 7-11.2 4.8-22 8.2-33.7.2-6.5-4.5-9-8.7-4.2-16.4ZM251.2 124c6.4 2.8 5.6 6.6 3 10.6-5.9 8.6-27.3 12.5-36 6.6-5-3.4-8-8-5.6-14 2.5-6.2 7.7-5.6 12.8-3.6 8.3 3.3 16.5 1.7 25.8.4ZM419.6 111c-4.2-9.5-9.9-15.2-19.8-15.7-6-.3-7-5.1-8.9-9.8 2-1.5 3.5-3.7 5.3-3.8 21.1-1.7 42.4-1.8 63.5-.1 6 .4 9.3 8 3.2 10.4-10 4-12.5 13.2-18.5 19.8-8.2 9-15.2 9.1-24.8-.8ZM229.6 81.1c12.2.7 23.1 1 34 2 3.6.3 8 1.8 8 6.7 0 5.6-4.6 5.2-8.3 5.1-6.3 0-9.7 2.7-12.5 8.6-3.4 7.4-6.9 15.3-18 14.8-10.5-.6-15.1-7.2-18.2-15.2-2-5.7-4.9-8.4-10.9-8.2-3.4.1-7.1-.2-7.5-4.9-.4-5 3-6 7-7.2a67.7 67.7 0 0 1 26.4-1.7Z" fill="#000"/></g><g transform="translate(610 680)"><g fill="#000"><path fill-rule="evenodd" clip-rule="evenodd" d="m264.3 14.3 78.4-.5 125.6-.8 6.2-.2c7.2-.4 14.6-.7 21 2.4 10.1 5 10.7 15 11.3 24.4a172.3 172.3 0 0 1-8.8 79.6 50.5 50.5 0 0 1-32 30.5c-23.5 7.8-48 13.5-72 4.8a65.7 65.7 0 0 1-42.1-39c-1.2-3.2-2.7-6.4-4.1-9.5a58.9 58.9 0 0 1-7-23.5c-.2-4.7-5.7-8.1-11.7-8.1-7 0-10.7 4.5-13.6 9.9a56.8 56.8 0 0 0-4.6 14.3c-.8 3.6-1.7 7.3-3 10.8-14.2 37-38.8 55.3-78.1 54.5a100.6 100.6 0 0 1-66.7-27.4A61.5 61.5 0 0 1 142.2 87a311.6 311.6 0 0 0 0-12 399 399 0 0 1-59.6-20.4C64.2 47 45.8 39.8 26.6 35c-3.3-.8-5.5-2-6.8-4.9-4-8.3-9.6-15.5-16.6-24.5L.3 2.1l18.9 3.3C32 7.7 43.9 9.8 55.9 11.7c9.8 1.6 19.7 3.4 29.5 5.2 20.1 3.7 40.2 7.4 60.7 8.9 6.6.4 12.5.3 18.2-5.9 6.2-6.8 16.3-6.3 25-6l2.8.2c23.7.8 47.3 1 72.2.2ZM96.1 51.7c2.8 1.5 5.2 1.1 5.2-2.4 0-18.9-14.5-29-34.1-23.5 4 14 14.6 20.5 28.9 26Zm16 3.6c-2-1.5-3-4.2-5.6-11.3-3.5-6-5-10.6-3.7-18a38.7 38.7 0 0 1 11.4 21c1 3.5 2 7 3.6 10.2-2.7-.6-4.4-1-5.7-2Z"/><path d="M287 44.8c-.8-6 3-7.4 7-7.4 19 0 38 0 57.1.5 4.4 0 8.5 2 11.1 5.5-6.9 8.1-53.6 9.4-75.3 1.4Z"/></g></g><g transform="translate(774 657)"><path d="M47.1 22c23.6-.3 45.4-8.9 68.1-5.8 18.2 2.5 36.3 4 54.6.9 6.6-1.2 11.6 2 13 12 1.5-13.5 13.4-12.8 17.1-11.2 15.5 6.6 30.2 1 44.9-.5 20-2 48.5 10.6 58.3 28.4a52 52 0 0 0 4.4 6.1c2.8 3.7 7.3 7.2 3 12.1-4.1 4.6-9.2 1.7-13-.3C289 59 280.8 53.7 273 48a18 18 0 0 0-19-2.4 76.4 76.4 0 0 1-38.9 4.4c-14.4-1.5-29.5 3.4-43 2-21.5-2.5-43.2 3.4-64.2-3.5-8.4-2.8-16.7-6.9-25.1.2-.9.7-2.7 1.3-3.6.9-12.3-6-24.4 0-36.4.1-10.2 0-20.2 3-30.3 1.6-3.8-.5-9.2 2-11-3.6-2-6.2 4-8.2 7.5-10.3C17.4 32.2 26 26.7 36.7 26c3.2-.2 6.3-2.4 10.4-4Z" fill="#000"/></g><g transform="translate(0 559)"></g></g></svg>