<svg xmlns="http://www.w3.org/2000/svg" viewBox="0 0 1744 1744" fill="none" shape-rendering="auto"><metadata xmlns:rdf="http://www.w3.org/1999/02/22-rdf-syntax-ns#" xmlns:xsi="http://www.w3.org/2001/XMLSchema-instance" xmlns:dc="http://purl.org/dc/elements/1.1/" xmlns:dcterms="http://purl.org/dc/terms/"><rdf:RDF><rdf:Description><dc:title>Notionists</dc:title><dc:creator>Zoish</dc:creator><dc:source xsi:type="dcterms:URI">https://heyzoish.gumroad.com/l/notionists</dc:source><dcterms:license xsi:type="dcterms:URI">https://creativecommons.org/publicdomain/zero/1.0/</dcterms:license><dc:rights>Remix of „Notionists” (https://heyzoish.gumroad.com/l/notionists) by „Zoish”, licensed under „CC0 1.0” (https://creativecommons.org/publicdomain/zero/1.0/)</dc:rights></rdf:Description></rdf:RDF></metadata><mask id="viewboxMask"><rect width="1744" height="1744" rx="0" ry="0" x="0" y="0" fill="#fff" /></mask><g mask="url(#viewboxMask)"><rect fill="url(#backgroundLinear)" width="1744" height="1744" x="0" y="0" /><defs><linearGradient id="backgroundLinear" gradientTransform="rotate(321 0.5 0.5)"><stop stop-color="#b6e3f4"/><stop offset="1" stop-color="#ffdfbf"/></linearGradient></defs><g transform="translate(531 487)"><path d="M554 727.7c-99.2 297-363.8 388.6-503.7 19.8-19.3-50.7 31-69.5 66.2-91.9 24.1-15.3 36.8-28.5 35.3-42.2-7-64.4-36.9-243.8-36.9-243.8l-3-5.8s.7-1.6-2.2 1.2c-3 3-9.9 34.2-37 34.2-24.5 0-49.2-10.9-61-86.3C7.2 285.6 9.6 214 40 201c12.5-5.3 24-7.2 35.2-.8 11.3 6.4-13-22 112-126C268.4 6.4 396.7-3.5 448.5 8 500.3 19.5 552 44.8 574.9 98.5c27.8 65-25.9 114.3-14 262.5-2.2 53.6.8 171.2-146.6 210.6-28 7.5-19.3 48.4 22.7 58.4 67 21 117 72.3 117 97.9" fill="#fff"/><path fill-rule="evenodd" clip-rule="evenodd" d="m554 266.2.1-1.4c4.1-36.4 8.2-71.7 27.1-103.4 6.5 4.4 5.7 10 3.7 15.2-19.9 51.2-18 104.4-16.2 157.6l.4 14c2.1 66.4-14.5 126.8-58.7 177.5-15.4 17.6-35.8 29.8-56.5 40.3-21.4 11-25.9 20.1-19.2 43.6l.8 2.6c1.4 3.9 2.8 7.9-1 11.8-4.5 4.6-9.5 3.3-14.8 1.8l-.6-.1a406.4 406.4 0 0 1-137-68.3c-6-4.4-10.8-10.3-15.5-16.1l-.3-.4c-2.5-3-3-7.8.5-10.4 3.3-2.5 5.8-.5 8.7 1.8l1 .9a145.5 145.5 0 0 0 76.3 31.7c13.4 1.4 26.6.9 40 .4 7.4-.3 14.8-.6 22.3-.5 10.2 0 18.7-4.7 26.7-9.2l2.8-1.6c27.8-15.5 54.3-32.8 72.2-60.7 16.1-25 25.9-52.2 31.6-80.9 7.2-36.1 6.6-72.7 6-109.8-.3-12-.5-24.2-.5-36.4ZM50.6 190.8c21.9-1.7 34 11.2 44.3 26.3a140.4 140.4 0 0 1 22.4 61.5c.5 3.7 1 7.6-1.2 11.3-4.5.6-4.9-3-5-5.6-.5-20.7-9.7-38.7-18.9-56.1-6.6-12.5-16.2-24.6-31.4-27.6-17.2-3.5-33 12-40.8 32.2-14.5 37.6-12 74.6 1.4 111 5.8 15.9 13.1 32.1 27.8 43.2 14.8 11.3 32.7 9.3 43.6-5.7l2-2.5c2-2.6 4-5.1 5-8 2.1-5.8 5.4-11.2 11.3-10.4 6.8 1 8 8.3 8.7 14a3661 3661 0 0 0 22 156.7l5.9 38.8c2.6 17.1 5.6 41.7 3.6 52.1a28 28 0 0 0-.3 2.2c-.4 2.8-.6 5-4.2 5.5-4.9.8-7-2-7.7-6.4-2.3-17-3-23.6-4-49.6-.9-25.2-5.6-50-10.4-74.9l-5-27c-5.2-30.8-10.3-62-10.8-97l-2 3c-7.6 11.3-13.7 20.5-24.5 24a40.5 40.5 0 0 1-46.1-12.5 127.8 127.8 0 0 1-28.8-55.8c-8.4-34-9.9-67.1.9-100.6 5.2-16.1 23.7-44.7 42.2-42Zm34.6 127.5c4.4 3.2 8.4 6 12-5.4-1.1-42.2-14.7-69.2-35.8-70.3 11.2 14.6 22 28.8 23 48.5a32.3 32.3 0 0 1-10.7-8.8c-2-2.2-4-4.4-6.5-6l-3-2.4c-4.8-3.6-9.7-7.4-17.8-4.5 3.8 5.8 9 10 14.3 14 6 4.7 12 9.3 15.6 16.5-10.6 7.7-15.2 17.7-9.7 29.9 4.8 10.5 11.9 19.2 25.9 19.8-.6-6.3-4.7-10.9-8.8-15.4-5-5.4-9.7-10.6-7.5-18.6 3.2-1.5 6.2.7 9 2.7Z" fill="#000"/></g><g transform="translate(178 1057)"><path d="M1303 692 16 688.7S53.5 481.5 111 360C236.9 93.7 489.4 44.3 511.3 56.7c32 18 62.3 40.7 151.4 40.7 91.1 0 148.8-39.5 148.8-39.5s135.3 32.3 200.6 69.5c83.1 47.4 177 187 220.2 295.9 46 115.6 70.7 268.7 70.7 268.7Z" fill="#fff"/><path fill-rule="evenodd" clip-rule="evenodd" d="M1296.8 692c-6.3-26-11.8-51.9-17.3-77.9l-8.4-39c-8-36.6-18.6-72.3-30-107.6a678.2 678.2 0 0 0-42.1-102.8l-7-13.7a802.4 802.4 0 0 0-27.6-50.7c-27.4-45.3-58.1-88.3-97-124a334.8 334.8 0 0 0-102.4-65c-7-2.8-13.8-6-20.7-9.1-7.9-3.7-15.8-7.3-24-10.5-10.6-4-14.4-.7-18.8 7.3-8 14.7-18 28-32.9 36-40.3 21.6-82.3 33.2-126.5 13.6a138 138 0 0 1-48.6-35.4c-6-7-12.2-8.3-20.5-9.5-22-3.3-36.7 4.7-49 23.1-16.3 24.2-42.3 33.2-69.5 35.8a146.6 146.6 0 0 1-108-31.8A203.2 203.2 0 0 1 402 86.5l-9.7 4.5c-6.9 3.1-13.6 6.2-19.8 10-9.6 6-19.7 11-29.8 16a347.3 347.3 0 0 0-34 18.9 454.4 454.4 0 0 0-85.4 73.7 604 604 0 0 0-86.3 122.8 869 869 0 0 0-50 108.1 1216.5 1216.5 0 0 0-34 102 562 562 0 0 0-20.2 102.2c-.6 6.8-2.1 13.6-3.7 20.4-1.9 8.3-3.8 16.8-4.1 25.8-5.5 1-10.6 1-16.9 1 4.5-32.9 9.7-66 16-98.8 2.3-12 5.3-23.7 8.3-35.4l5.3-21.5c5.2-22.6 12.6-44.6 20-66.6l.9-2.7a836.3 836.3 0 0 1 83-179c17-27.2 36-53 57.1-77 37.3-43 79.1-80.3 130-105.9l10.8-5.4c36-18.2 72-36.4 112-44.2 11.1-2.1 22.2-4.6 33-7.6 12.7-3.5 15.2-9.1 10.3-21.1l-1-2.2c-.7-1.6-1.4-3.3-1.7-5v-.4c-.6-3.6-1.2-7.8 3.8-8.9 4.3-1 5.5 1.6 7 5l.6 1.1c1.6 3.2 3 6.5 4.5 9.7 4.8 10.8 9.6 21.7 18.6 30.6a101 101 0 0 0 59.7 27.2l5.3.7c24.8 3.3 49.7 6.7 75 5.4 35.3-1.8 70.2-5.5 104-16.5 5.2-1.7 9.7-4.8 14-8.3 7-5.8 6.5-10.6.5-16.8-8.9-9.2-11-20.6-10.3-32.6 4-1.5 7-.5 7.6 1.8 7 30.4 29.6 36 55.8 39 33.8 3.8 66.1 14.3 98.5 25 25.4 8.5 48.3 21.6 71.2 34.6l18.6 10.5c25 13.8 47.2 32.1 66.9 53.2 22.7 24.3 43.9 50 62.4 77.6 16.1 24 31.5 48.6 45 74.5a1007.4 1007.4 0 0 1 86.5 242c5.6 25.4 9.8 51.3 14.1 77.5 2.2 13.2 4.3 26.4 6.7 39.7-3.2.9-6.7.9-11.2.9ZM573 143a83.8 83.8 0 0 0 49.7-37.7 17 17 0 0 0-9.2-3.5l-2.8-.5a470 470 0 0 0-19.9-3.9c-27-4.8-54-9.7-74-32.8-1.3-1.5-4.6-1.7-7-1.8-27.5-.5-53.4 6.9-79.4 14.3l-11.2 3.2c.8 5.6 2.6 9 5.8 12.2a224 224 0 0 0 39.6 32.5c32.9 21 67.9 30.7 108.4 18Zm224 .3c-31.6 4.3-57.1-9-81-27.6-1.6-1.7-3.3-3-4.9-4.2-3-2.4-5.7-4.5-6.9-8.4 10.1-3.8 20.6-5.8 31.1-7.9 11.2-2.1 22.4-4.3 33-8.6l5.4-1.8c4.3-1.4 8.7-2.8 11.8-5.8 16.7-16.2 36.2-15.6 56.2-10.6 13 3.3 26 7 39.5 11l19 5.6-5.6 6.5c-14.1 16.6-26.6 31.3-46.9 38.5-16.7 6-33.2 11-50.7 13.3Z" fill="#000"/><path d="M1115.6 692c-9.1-36.9-12.1-74.7-22-111.2-7.7-28.1-13.9-56.8-23.8-84-7-19.4-13.7-39-23-57.8-12.7-25-23.1-51.2-34.4-77-1.3-3-2.9-6.3 1.3-8.8 4.3-2.6 7.4-.5 9.8 2.6 3.8 5 7.8 10.2 10.6 15.9 10 20.4 19.4 41.1 29.1 61.6A612.7 612.7 0 0 1 1097 529c9 31.6 17.5 63.6 21.5 96.6 2.6 21.4 7 42.7 8.6 65.4-3.3 1-6.8 1-11.4 1ZM221.2 692c-.6-3 .4-5.8.4-8.7 0-49.6 9.6-98 16.6-146.7 5-35 13.3-69 22.5-102.9a253.5 253.5 0 0 1 31.6-69c2.3-3.6 4-10 10-6.9 6.1 3.2 3.2 9 1.4 13.6-7.2 17.6-15.9 34.7-21.8 52.7a748.3 748.3 0 0 0-31 138.7c-1 8.5-2.7 16.8-4.9 25-7.4 28.5-3.8 58.4-10.9 87-1.1 4.7.3 10.1.3 16.2-4.5 1-8.9 1-14.2 1Z" fill="#000"/><path fill-rule="evenodd" clip-rule="evenodd" d="M645.9 165.5c-9 6.6-10.5 15.7-3.6 28.3l4 2.7c2.3 1.5 4.3 3 6.5 3.6 9.5 3 17-2 21.6-9.1 4.7-7 5.5-16.9-1.9-22-7.3-5.1-16.6-10.9-26.6-3.5Zm5.4 17.4Zm0 0c3.8 2.8 7.6 3.4 10.9-.5a3.4 3.4 0 0 0-1.2-5.3c-4.4-1.6-9.2-2.6-9.7 5.8Z" fill="#000"/></g><g transform="translate(266 207)"><path d="M285.9 361.5a626.9 626.9 0 0 1 50.8-83c14.5-19.4 28.8-39 47.6-54.5 24-19.9 50-35.2 80.2-44.6 25.8-8 51.2-6.9 77-5 7.7.6 11.5-2 11.8-9.5.3-7.6-.3-15.4.3-23 1.6-22.8 20-31.6 39-19.2a124.8 124.8 0 0 1 36.9 36.2c1.8 2.9 4 5.6 8.7 6.2 5.4-5.7 8.5-14 15.7-18.7 6-3.9 12.2-9.2 19.9-5 6.9 3.7 10 10.2 9.4 18.2v5.1c.1 13.4 0 23.1 18.4 29 26.3 8.4 49.2 26 70.6 44.5 40 34.8 62.7 80 73.3 130a488 488 0 0 1 12 107.6c-1 68 4.6 136 16.7 203 6.4 34.9 15 68.8 27.3 101.7 3.9 10.3 8.6 20.3 14.1 29.8 13 22.2 2.6 32.2-17.2 38.8-5 1.8-10.8 1.6-17.4 2.5 5.1 11.6-.8 15.3-11.5 17.2-43 7.7-30 7.8-71.5-4 6 11.6 0 15.8-10.1 17.3-26.6 4-52.5 4.8-75.3-13.2-6-4.7-9.4-10.8-12.8-17.2-4.3-8.2-2.4-14 6.2-18.6 34.4-18.4 57-48 74.3-81.7 15-28.8 25.6-59 30.1-91.4 1.7-11.7-.3-22.8-.4-34.2-.5-40-3-80.1 1.2-120 2-19.4 6.8-38.5 6-58.3-.6-18-6.5-27.4-23.5-31.4-27.7-6.6-54.7-14.5-79.1-29.8-6.6-4.1-15.6-3.2-22.6-.5-35.4 13.7-67.6 1-99.4-12.3-16.1-6.7-20.1-7.4-28.5 6.8-19.1 32.8-50.5 51.8-79.6 73.7-24.4 18.4-54.2 27.5-77.8 47.8-21.7 18.7-29.8 40.5-24.7 67.7a107.8 107.8 0 0 0 25.7 50.5c14.8 17.2 32.3 32.3 42 53.8 16 35 24.5 71 12.6 108.3-8 25.1-22.3 47.6-41 66.7-8.8 9-21.3 8-32.6 9.1-18.1 1.8-36.5 2.1-54.8 2.9-4.2.1-9.6.2-11.1-4.4-1.5-4.5.7-9 4.4-12.6 17.3-16.4 20.7-38.3 23.5-60.5a558.3 558.3 0 0 1-33.5 43.2c-10.7 12.5-21.4 25-36.5 32.8-28.1 14.4-56.6 12.3-85.3 2.5A108 108 0 0 1 169 849c-13-9-13.9-12.3-4.8-26-17.1-2-34-4.2-47.8-15.2-7.9-6.3-7-11.4 2.6-14.2 34.2-10.1 56.9-33.7 76.2-62.2 23-34 28-72.2 27.7-111.7 0-25.7 4.6-50.6 8.6-75.8 4.2-26.4 8.3-52.8 15-78.7 7.1-28.3 15.4-56.2 29.9-81.8 3.7-6.7 6-14 9.4-22Z" fill="#000"/></g><g transform="translate(791 871)"><path d="M141.7 79c-3.2 7-5.7 14.2-6.1 22-.2 4.6.8 9.8 6 11.6 5.4 1.9 9.1-1 12.8-5.6 6-7.5 7.4-16.2 7.5-25.1 0-5 1.3-11.8-6.1-13.7-7.6-2-10.7 3.1-14 10.7Z" fill="#fff"/><path fill-rule="evenodd" clip-rule="evenodd" d="M140.4 59.5c-14.9 15-17.2 33.4-14.1 54.3 5.4 10.8 14 11.2 23.4 9.9 21.3-2.9 39.6-34.7 26-58.5-9.4-16.3-22-19-35.3-5.7Zm-4.8 41.4c.4-7.7 2.9-15 6.1-22 3.4-7.6 6.5-12.7 14-10.7 6.7 1.7 6.4 7.3 6.3 12v1.7a39.1 39.1 0 0 1-7.6 25.1c-3.7 4.6-7.4 7.5-12.8 5.6-5.2-1.8-6.2-7-6-11.7Z" fill="#000"/></g><g transform="translate(653 805)"></g><g transform="translate(901 668)"><path d="M65.7 103.7c-.6 21.6 16.4 30.6 27.5 43.5 8.5 10 18.5 18.7 13.7 34.4a39.6 39.6 0 0 1-40.8 27.6 104 104 0 0 1-36.4-11A22.2 22.2 0 0 1 19 187.6c-1.7-3.8-5.4-7.8-.5-11.4 4.6-3.4 7 0 10 3.7 11 13.3 26 16.4 42.6 15.7A23.2 23.2 0 0 0 93 180.8c3.6-8.3-1.6-15.2-6.3-20.8-9.3-11-20-20.5-27.4-33.2-8.3-14.2-7.6-44.1 2.2-57.4 1.9-2.5 3.6-5 7.2-3.1 3.8 2 3.4 5.5 2.2 9a69.3 69.3 0 0 0-5.2 28.4Z" fill="#000"/></g><g transform="translate(610 680)"><path d="M419.6 111c-4.2-9.5-9.9-15.2-19.8-15.7-6-.3-7-5.1-8.9-9.8 2-1.5 3.5-3.7 5.3-3.8 21.1-1.7 42.4-1.8 63.5-.1 6 .4 9.3 8 3.2 10.4-10 4-12.5 13.2-18.5 19.8-8.2 9-15.2 9.1-24.8-.8ZM228.6 81.4c12.2.7 23.1 1 34 2 3.6.3 8 1.8 8 6.7 0 5.6-4.6 5.2-8.3 5.1-6.3 0-9.7 2.7-12.5 8.6-3.4 7.4-6.9 15.3-18 14.8-10.5-.5-15.1-7.2-18.1-15.2-2.2-5.7-5-8.4-11-8.2-3.4.1-7.1-.2-7.5-4.9-.4-5 3-6 7-7.2a67.9 67.9 0 0 1 26.4-1.7Z" fill="#000"/></g><g transform="translate(610 680)"><path d="M401.2 30c17.6.1 34.2-.2 50.6.5 9.6.4 19.2 2.3 28.7 3.8 3.4.6 6.2 2.3 7.5 6.1 8.7 25.6 12.5 51.2 1.5 77.2-5.7 13.7-14.6 21-30.8 21.2-26.3.3-52.7 2.5-79.1 2.2-17.3-.1-24.9-5.4-29.4-21.8C347 107 339.6 96 340 82.6c.3-7.3-6.8-8-12.2-8.6-9-1-15.7 2.5-19.6 10.8-2 4.4-1.8 9.2-1.8 13.9 0 14.5-6.9 26.2-15.8 36.6-10.8 12.7-25.9 8.5-39.6 7.5-22.8-1.6-45.6-4.5-68.4-6.4-12.7-1-23-7.7-23-20.4-.3-27.4-15.2-38.4-39.6-45.7-26.6-8-51.9-20.6-77.8-31-9.7-4-21-5.1-27.4-17.2 12.3-2.3 23.3 2 33.4 7a702 702 0 0 0 97 37.1c5.3 1.7 8.3-.4 10.4-4.5 2-4.2 3.2-8.8 5.3-12.9 9.5-18 24.6-24.3 47.4-21.2 22.2 3 44.4 6.4 67 7.4 25 1.2 30.1 7 32.3 28.6 10.5-.8 21-5 32-1.6 3.4 1 5.3-4 6.4-7 8-22.1 26.6-25 46.4-25.3 2.6 0 5.1 0 8.8.2Z" fill="#000"/></g><g transform="translate(774 657)"><path d="M15 39C23.8 24.6 37 20.4 51.9 19c23.2-2.3 44 8.5 65.9 12.8 8 1.5 6.8 7.5 1.4 10.7-9.4 5.7-19.5 11-31.2 7-22.5-7.6-45.1-12-68.6-4.1-6.2 2-5-2-4.2-6.3ZM255 29c15-2.6 28.7-5.3 42.2 1.5 10.8 5.5 15 14 12.9 25.5-5 3.1-7.5-.4-10.6-2.5-11.6-7.9-23.9-10-37.3-4.6-9.3 3.7-19.2 2.4-29 2.4-4.7 0-8.4-1.8-8.7-7-.4-5.5.9-10.8 6.9-12 7.3-1.7 15-2.2 23.7-3.3Z" fill="#000"/></g><g transform="translate(0 559)"><path d="M1721.2 1194h-235s-39.6-69.5-42-145.1c-.9-24.9 11.2-81.4 6.6-222-3.2-99.7-19.3-218.5-32.2-248.4-9.8-22.6-44-67-79.1-87.4-43.4-25.3-59-78.3-58.2-99.2.8-21 10.3-47.6 26.3-47.6 15.9 0 19.7 29.3 26 58.9 23.5 109.3 84.3 42.8 76.4-15-4.6-32.6-24-66.3-45.4-70.9-22.2-4.8-40.7-2.6-45.7-10.5-5-8 1.5-31.8 18.7-37 17.1-5.3 37.2-16.3 67.7 7.6 30.5 23.8 28.1 25.8 29 6.6 1.7-33-40.7-105.3-48.3-128.2-7.7-22.9-.4-32 11-38.2 11.5-6.2 40.3 35.3 49.2 49.9 17.4 28.8 32.3 119.9 45.2 114.2 12.9-5.8 7.1-68 3.7-99.5-3.7-33.7-12.2-76.2 4.5-75.2s31.4 60.8 42.8 90.8c17 44.7 1 152.4 17.7 150.5 16.7-2 24.3-66.4 23.9-76.9-.5-10.5-1.1-55.9 12-61.8 22.1-9.8 32 53.4 33 73.5.8 21.3-10.1 62.8-18.2 83.3s-37.5 126.6-52.6 156.4c-19.2 37.8-1.2 75.3 14 105.8 15.3 30.5 93.1 259.2 113.9 291.3 20.7 32.2 40.8 83.9 47.7 138.7 7.5 60.7-12.6 135.5-12.6 135.5Z" fill="#fff"/><path fill-rule="evenodd" clip-rule="evenodd" d="M1411 584a257 257 0 0 1 19.1 77.4l13 135.4c.4 10.2.5 20.5.6 30.7.1 19.7.3 39.3 2.8 58.6 2.8 21.7 1.7 43 .5 64.2l-.7 15.6c-.4 9.7-3 19-5.5 28.3a111 111 0 0 0-5.5 33c1.3 36.9 5 73.3 17 108.8 7 21 15.6 40.8 30.9 58h11.7c-3.2-10.5-8.4-20-13.6-29.5-3.7-6.8-7.4-13.5-10.4-20.7a217 217 0 0 1-15.8-62.3c-2.9-28.7-5.6-57.4-.8-86.4.8-4.5 2.2-8.6 3.4-12.4 1-2.7 1.8-5.2 2.3-7.6l1.8 7.1c18.4 73.4 37 148 87.6 211a59 59 0 0 0 16.8 0c-18.3-23.4-36-46.6-46.7-73.5a606 606 0 0 1-28.1-84c-2.4-10-5-20-7.6-29.8-4.5-17-9-34-12.1-51.4a1042 1042 0 0 1-15.7-166.7c-.3-15-.5-30.2-2.7-45.2-5.2-37-10-73.9-14.8-110.8l-1.8-13c-3.4-26-10.9-51-28.3-70.6-23.1-26-47-51.5-73-74.6a137.7 137.7 0 0 1-42.6-69.2c-4.6-16.7 1.3-31 8-45.4 1.4-3.2 4-6 7.9-5.4 4 .6 8 2.8 8.1 7 .3 7.3 2.3 14.3 4.3 21.2 1.5 5.4 3 10.7 3.8 16.2 2.8 21.2 12 39.8 24.5 56.5 11 14.5 42 15.5 50.4 2.5 12.8-20 21.3-40.7 19.5-65.6-2.7-35.3-33.5-92-83.8-86.7l-.6.1c-3.5.4-7.7.8-9.7-3.1-2.3-4.4 0-9.4 2.6-11.8 1.9-1.7 3.5-3.5 5.2-5.4 3.4-3.7 6.8-7.4 11.6-9.7 18.6-8.8 44.7-2.5 62.7 15.4a121.1 121.1 0 0 1 33.4 60.3c.9 4 2.1 10.1 9 8 6.4-1.9 5.5-8.3 4.5-13.1-1-5.2-2.4-10.3-3.7-15.4-1.2-4.3-2.4-8.6-3.3-13l-6.7-32.3-7.3-35c-3.8-17.4-11-33.5-18.4-49.6-3.7-8.2-7.4-16.4-10.7-24.8-1.4-3.7-3.2-7.3-5-11-4.3-9-8.8-18-8.2-28.5.5-11 4.2-12.9 13.2-7.2a68.9 68.9 0 0 1 23.3 26.7c16.4 30.1 31.6 61.3 40.4 94.3 1.8 7 4.4 13.7 7 20.5 6.1 16.1 12.3 32.4 8.6 50.7-.9 4.6-.8 11.3 6.5 11.7 7.3.4 8-5.4 8.6-10.6l.1-1c1.5-11.7 2-23.3 2.6-35 .6-13.8 1.3-27.6 3.4-41.3 1.8-11.7 1.3-23.7-.6-35.7-1.5-9.3-2.2-18.8-3-28.2-1-13-1.9-26-5-38.9-1.8-7.8-1.4-16 1-23.7a243 243 0 0 1 29.4 60.1c10.3 30.3 13 62.3 14.7 94.3 1.3 23.8 3.7 47.5 6 71.3l1 11.3c.6 5.7 1.2 12 7.4 15 4.7-.5 6.7-3.7 8.4-7.2 18.6-38.8 32.3-78.7 29.2-122.6a33.2 33.2 0 0 1 8-23.3c4 2.3 5.1 5.7 6 8.9.8 3.7 1.7 7.3 2.7 11 3.4 13.6 6.8 27.3 9.2 41 1.5 9 1.3 18-.5 26.8a1343.8 1343.8 0 0 1-64.7 203.6c-6.7 17-9 34.2-11.3 51.7l-.4 2.7a59.6 59.6 0 0 0 4.5 30l12.6 31.5c13.4 33.9 26.8 67.7 43.2 100.3 12.3 24.6 20.6 51 28.8 77l4.6 15 1.4 4c8.1 25.5 16.3 51.3 22.7 77.5l4.4 17.7c5.6 22.5 11.2 45 14 68 4.2 32.9 3.8 66 0 99.2l-1.4 13.8c-3.5 34.1-7 68-27.2 97.4h34.6l6-13a205 205 0 0 0 14.7-37.3c11-43.8 11-87.2 1.6-131-2.4-11-5.6-21.8-8.9-32.5a280.3 280.3 0 0 1-11.6-48.6c18.1 25.6 24.7 55 31.3 84.2l1.5 6.6c8.5 37.5 9.3 75.8 8 114-.5 17-4.6 33.3-8.8 50l-1.7 6.7c3.9.8 8 .9 11.8 0l.7-1.4c3.5-7.1 6.7-13.5 7.8-20.8 3.8-25.3 6.5-50.7 6.5-76.1 0-38.4-9.2-75.7-18.6-112.8l-1.5-6.9c-1-5.5-2.2-11-4.8-16.2-11.3-21.8-22.2-43.8-33-65.7l-21-42c-12.3-24.5-21-50.5-29.8-76.6a703.1 703.1 0 0 0-23.6-63.4c-9-20-17-40.4-25.2-60.9l-11.9-29.3c-1.3-3.3-2.7-6.5-4.2-9.8-6.1-14.2-12.3-28.4-12.4-44.5-.2-27.5 9.8-52.2 19.7-76.8 3.9-9.6 7.8-19.1 11-28.8 2.7-8 5.7-16 8.7-23.9a376.2 376.2 0 0 0 14.1-42c1.7-6.5 3.7-13 5.7-19.4 2.6-8.5 5.2-17 7-25.8 1.3-6 2.8-12 4.3-17.9 5.6-22.3 11.1-44.5 3.9-68.3-2-6.4-3-13-4.2-19.7-1.5-8.9-3-17.7-6.4-26-4.2-10-10-20.9-22.1-20-11.8 1-15 12.7-17.2 22.7-1.2 5.3-1.7 10.6-2.3 16l-.8 8-1.8 16.7c-2.1 21.2-4.2 42.7-15.2 63.3l-1.6-11.3c-1.2-7.6-2.3-14.7-2.4-21.8a389 389 0 0 0-9.9-93.7c-8.3-32.4-22-62.1-38.2-91-4.2-7.3-11.6-8.1-19.2-6.4-7.8 1.8-8.9 8-9.1 14.9-.7 23 .5 46 6.3 68.5 6.7 26 4.7 52-.1 79.5-4-4.6-4.6-9.6-5-14.3-.4-3-.7-5.9-1.8-8.6-5.5-12.9-10.6-26-15.6-39l-11.2-28c-8.4-20.6-20.2-39.2-36.2-54.6-7.7-7.4-17.6-12.4-28-7.2-11 5.6-14.7 16.5-12.6 28.4a114 114 0 0 0 8 28.1l7.4 15.9c7.5 15.8 15 31.7 21.4 48a215.3 215.3 0 0 1 13.4 52c-3.8 1-5.5-.3-6.9-2-15.4-18.3-34.6-26-59-27-19.6-.8-44.7 19.3-50.5 36.6-4.1 12.4 7.3 28 20.2 27.9h1.2c11.9-.1 23.6-.2 34.4 6.8 26.5 17.2 35.3 43.3 37 72.9 1 17.6-1.8 34-17.9 44.9-7.5 5-17 8.1-23 .3a107.2 107.2 0 0 1-24.2-57c-2.4-13.2-4.9-26.4-11.6-38.4-4-7.1-9.2-10.7-17.2-11.1a29.4 29.4 0 0 0-30 24c-8.4 44.2 2.5 82.5 35 114.1 25 24.4 49.9 48.8 74.6 73.5 9.7 9.7 16.2 21.3 21.6 34.2Zm277.8 547 .6-3c5-30.2 6-58.5 6.1-88 8 37.6 1 72.7-9.4 107.5l.4-3a689.8 689.8 0 0 1 2.3-13.4Z" fill="#000"/></g></g></svg>