<svg xmlns="http://www.w3.org/2000/svg" viewBox="0 0 1744 1744" fill="none" shape-rendering="auto"><metadata xmlns:rdf="http://www.w3.org/1999/02/22-rdf-syntax-ns#" xmlns:xsi="http://www.w3.org/2001/XMLSchema-instance" xmlns:dc="http://purl.org/dc/elements/1.1/" xmlns:dcterms="http://purl.org/dc/terms/"><rdf:RDF><rdf:Description><dc:title>Notionists</dc:title><dc:creator>Zoish</dc:creator><dc:source xsi:type="dcterms:URI">https://heyzoish.gumroad.com/l/notionists</dc:source><dcterms:license xsi:type="dcterms:URI">https://creativecommons.org/publicdomain/zero/1.0/</dcterms:license><dc:rights>Remix of „Notionists” (https://heyzoish.gumroad.com/l/notionists) by „Zoish”, licensed under „CC0 1.0” (https://creativecommons.org/publicdomain/zero/1.0/)</dc:rights></rdf:Description></rdf:RDF></metadata><mask id="viewboxMask"><rect width="1744" height="1744" rx="0" ry="0" x="0" y="0" fill="#fff" /></mask><g mask="url(#viewboxMask)"><rect fill="url(#backgroundLinear)" width="1744" height="1744" x="0" y="0" /><defs><linearGradient id="backgroundLinear" gradientTransform="rotate(115 0.5 0.5)"><stop stop-color="#b6e3f4"/><stop offset="1" stop-color="#ffd5dc"/></linearGradient></defs><g transform="translate(531 487)"><path d="M554 727.7c-99.2 297-363.8 388.6-503.7 19.8-19.3-50.7 31-69.5 66.2-91.9 24.1-15.3 36.8-28.5 35.3-42.2-7-64.4-36.9-243.8-36.9-243.8l-3-5.8s.7-1.6-2.2 1.2c-3 3-9.9 34.2-37 34.2-24.5 0-49.2-10.9-61-86.3C7.2 285.6 9.6 214 40 201c12.5-5.3 24-7.2 35.2-.8 11.3 6.4-13-22 112-126C268.4 6.4 396.7-3.5 448.5 8 500.3 19.5 552 44.8 574.9 98.5c27.8 65-25.9 114.3-14 262.5-2.2 53.6.8 171.2-146.6 210.6-28 7.5-19.3 48.4 22.7 58.4 67 21 117 72.3 117 97.9" fill="#fff"/><path fill-rule="evenodd" clip-rule="evenodd" d="m554 266.2.1-1.4c4.1-36.4 8.2-71.7 27.1-103.4 6.5 4.4 5.7 10 3.7 15.2-19.9 51.2-18 104.4-16.2 157.6l.4 14c2.1 66.4-14.5 126.8-58.7 177.5-15.4 17.6-35.8 29.8-56.5 40.3-21.4 11-25.9 20.1-19.2 43.6l.8 2.6c1.4 3.9 2.8 7.9-1 11.8-4.5 4.6-9.5 3.3-14.8 1.8l-.6-.1a406.4 406.4 0 0 1-137-68.3c-6-4.4-10.8-10.3-15.5-16.1l-.3-.4c-2.5-3-3-7.8.5-10.4 3.3-2.5 5.8-.5 8.7 1.8l1 .9a145.5 145.5 0 0 0 76.3 31.7c13.4 1.4 26.6.9 40 .4 7.4-.3 14.8-.6 22.3-.5 10.2 0 18.7-4.7 26.7-9.2l2.8-1.6c27.8-15.5 54.3-32.8 72.2-60.7 16.1-25 25.9-52.2 31.6-80.9 7.2-36.1 6.6-72.7 6-109.8-.3-12-.5-24.2-.5-36.4ZM50.6 190.8c21.9-1.7 34 11.2 44.3 26.3a140.4 140.4 0 0 1 22.4 61.5c.5 3.7 1 7.6-1.2 11.3-4.5.6-4.9-3-5-5.6-.5-20.7-9.7-38.7-18.9-56.1-6.6-12.5-16.2-24.6-31.4-27.6-17.2-3.5-33 12-40.8 32.2-14.5 37.6-12 74.6 1.4 111 5.8 15.9 13.1 32.1 27.8 43.2 14.8 11.3 32.7 9.3 43.6-5.7l2-2.5c2-2.6 4-5.1 5-8 2.1-5.8 5.4-11.2 11.3-10.4 6.8 1 8 8.3 8.7 14a3661 3661 0 0 0 22 156.7l5.9 38.8c2.6 17.1 5.6 41.7 3.6 52.1a28 28 0 0 0-.3 2.2c-.4 2.8-.6 5-4.2 5.5-4.9.8-7-2-7.7-6.4-2.3-17-3-23.6-4-49.6-.9-25.2-5.6-50-10.4-74.9l-5-27c-5.2-30.8-10.3-62-10.8-97l-2 3c-7.6 11.3-13.7 20.5-24.5 24a40.5 40.5 0 0 1-46.1-12.5 127.8 127.8 0 0 1-28.8-55.8c-8.4-34-9.9-67.1.9-100.6 5.2-16.1 23.7-44.7 42.2-42Zm34.6 127.5c4.4 3.2 8.4 6 12-5.4-1.1-42.2-14.7-69.2-35.8-70.3 11.2 14.6 22 28.8 23 48.5a32.3 32.3 0 0 1-10.7-8.8c-2-2.2-4-4.4-6.5-6l-3-2.4c-4.8-3.6-9.7-7.4-17.8-4.5 3.8 5.8 9 10 14.3 14 6 4.7 12 9.3 15.6 16.5-10.6 7.7-15.2 17.7-9.7 29.9 4.8 10.5 11.9 19.2 25.9 19.8-.6-6.3-4.7-10.9-8.8-15.4-5-5.4-9.7-10.6-7.5-18.6 3.2-1.5 6.2.7 9 2.7Z" fill="#000"/></g><g transform="translate(178 1057)"><path d="M1301.3 694.3S1276 480.8 1263 423.6c-25.7-111.8-73.3-201.4-135.3-220.5-29.6-9.2-39.4-34-47-53.2-3-7.8-5.8-14.7-9.3-19.2C1040 90.7 975 50.5 941 37.3 914.5 27 838.5 20.6 813 30.7c-11.5 4.5-16.2 11-17.6 18.5-1.5.5-3 1.1-4.4 2-3.3 1.8-6 5-9.5 9C768 75.7 745 102.1 653.7 98c-72.5-3.2-120.5-13.8-149-58.3-2.3-3.6-5-4.8-8-4.2a223.7 223.7 0 0 0-163 19C316.2 64 219.4 158.4 218.4 163.7c-2 10.6-25.6 28-55.2 47.6C100.9 252.4 73.6 333 49.3 404.4l-6.6 19.2C31.8 455.2 6.1 692 6.1 692l176 2.3h1119.2Z" fill="#000"/><mask id="bodyVariant08-a" style="mask-type:luminance" maskUnits="userSpaceOnUse" x="453" y="259" width="392" height="433"><path d="m467 692-14-432.5h392V692H467Z" fill="#fff"/></mask><g mask="url(#bodyVariant08-a)"><g transform="translate(396 278)" style="mix-blend-mode:difference"><g fill="#fff"><path d="m302.9 264.7-.5.1h.5Z"/><path d="M410.3 250c-3-10-7.3-19.7-13-28.5a217.4 217.4 0 0 0-24.8-32.8 410 410 0 0 0-64.7-54.4 371.2 371.2 0 0 0-53.1-30A199.3 199.3 0 0 0 188 83.5c-12-.9-24.3-.1-36.2 2.3 11 1 22 2.8 32.7 5.4 14.8 4 33.2 11.6 49.3 18.1 20.5 9 40.7 18.8 59.8 30.5 29.6 19 53.5 38 76.8 62.8 12.4 14.3 20.5 25 28.4 40.5 3.7 8 6.4 16.6 8 25.3.8 6.1.7 5 .8 8.6v1.4l-.4 2.8v.1a44.4 44.4 0 0 1-19.2 27.3c-26.3 17-53 25.7-84.3 24.3-20.5-.8-41.7-6-58.8-10.7a385.2 385.2 0 0 1-61.8-22.6c-17-8-33.5-17.2-48.2-29-16.7-13.3-31.1-24.6-45-42.6-9.2-11.8-14.4-19.2-19.9-33l-.8-2.5c-1.6-5.4-1-2.5-1.7-8.3.2-3.5-.8-8 2.4-13.3a63 63 0 0 1 33.3-24c7.4-2.3 21.7-4.6 32.5-4.7 8-.1 16 1.2 23.9 2.4 15.7 2.8 28.7 6.9 44.7 13.5 14.7 6 29 12.8 42.9 20.4 29.1 16.6 63 42.2 70.4 67.4l.4 1.6v.2c.3 1.2.5 2.5.6 3.7v.3a114.5 114.5 0 0 0-.2 1.7l-.3 1.3c-1.5 4-7 7.6-15.3 10.1h-.3l-.3.2h.1a86 86 0 0 1-16.3 1.6c-9.5.1-18.9-1.6-28-3.8a126.6 126.6 0 0 1-38.1-15.5 189 189 0 0 1-26.9-18.4c-5.9-5-11.6-10.3-16.3-16.6-2-3-2.9-4.1-3.9-7.7a39.8 39.8 0 0 1 .2-.8l.2-.3v-.2l1.2-1.3.3-.4.3-.2c2.8-1.9 5.9-3.3 9-4.3 4-1.1 8.2-1.7 12.3-1.7a100.8 100.8 0 0 1 45.5 11.7 103 103 0 0 0-11.2-8.6c-12.8-8.2-29.1-15.6-44.6-14.2-12.4 1.7-19.9 6.7-20.1 20-.2 12.2 8.1 22.3 16.5 30.3 6.3 6 13 11.6 20.3 16.6a213.5 213.5 0 0 0 34 19c7.7 3 15.6 5.5 23.7 7.2 9.6 2.2 19.5 3.6 29.3 3 6.7-.3 13.5-1.1 19.7-3.8 25-9.7 16.6-42 3.8-58.7a158.2 158.2 0 0 0-36.9-35.3 284 284 0 0 0-51.1-29.7c-14-6.3-28-12.5-42.8-16.8a209.3 209.3 0 0 0-39.5-7.7c-7.8-.4-15.6 0-23.2 1.1A76.8 76.8 0 0 0 77.2 147a49.5 49.5 0 0 0-13 15.9 49.1 49.1 0 0 0-3.4 24c1.6 18.5 11.9 35 22.9 49.6a187.5 187.5 0 0 0 30.9 32.4c11.3 9.5 22.6 19.1 35 27 25.6 16 53.7 27.7 82.4 36.6 28.4 8.3 57.8 16 87.6 14.2a144 144 0 0 0 75.9-29 55.6 55.6 0 0 0 19-35.6 90 90 0 0 0-4.2-32Z"/><path fill-rule="evenodd" clip-rule="evenodd" d="M528.4 299.2c2 3 4 6.1 4.8 9.6 1 4.7 1.3 11-3 14.2-2.5 1.4-5.6 1.7-8.5 2l-1.4.1c-5.3.4-10.6.5-15.9.4h-.4c-2.8 5.2-5.5 10.5-8 16 1.3-5.1 3-10.6 5-16.2a213 213 0 0 1-8-.5 142.3 142.3 0 0 0 3.3 8.2l-.5-.7-.6-1c-1.4-2.1-2.8-4.3-4-6.6a126.6 126.6 0 0 1-26-5c-5-1.5-10.6-3.3-12.2-8.7-1.3-5-.3-11 4.2-14a142 142 0 0 1 18.1-12.4c-.7-3-1.4-6.3-1.8-9.5-.7-7.3-1.7-22.4 9-22.2 4.4 1 7.9 4 11.2 6.8l1.6 1.3a150.9 150.9 0 0 1 8.8 8.5c3.8-1.7 7.7-3 11.6-4.2 3.1-.8 6.4-1.4 9.5-.4 3.8 2 4 7 3.5 10.8-.5 2.8-1.4 5.4-2.7 7.9l-3.5 7.1c2 2.6 3.8 5.3 5.6 8l.3.5Zm-8.8-20.8c-1.7.3-3.4.7-5 1.3l-.4.1-.5.2 3.6 4.2 2.4-5.8Zm-37.2-11.6 4 2c2.5 1.8 4.9 3.7 7 5.8a349 349 0 0 0-12.5 6.8 58.4 58.4 0 0 1-1-14.2l.8-.4h1.7Zm-3.3 30.2c-4.7 2.7-9.4 5.6-13.8 8.7 6 2 12.4 3.4 18.8 4.2a244.4 244.4 0 0 1-5-13Zm9 13.4-4.3-16v-.1l2.8-1.6c5.4-3 11-6 16.6-8.5a222 222 0 0 1 9.6 10.8l-6.6 16.5c-6 0-12.2-.4-18-1Zm29.3-9.7-5.8 10.8c4.3 0 8.6-.3 12.9-.8l-.9-1.4c-2-2.9-4-5.8-6.2-8.6Z"/><path d="M262.6 221.8c2 6.7 3.6 10.8-3.4 12.4-5.4 1.1-11 .5-16.4.4-.8 0-1.1 0-.2.3a45 45 0 0 0 9.6 3.6c12.6 3.2 17.6-6.8 10.4-16.7ZM412.8 353.9c-4.7 2.5-9.9 4.1-15 5.8a237 237 0 0 1-21.2 5.6 261 261 0 0 1-58.3 5c-22.6-1-45-4.8-66.8-11-18-5-45.7-11.8-72.3-22.3l-5.7-2.3a851 851 0 0 0 56.3 29.5 196.2 196.2 0 0 0 55.3 16.5c18.7 3.2 37.7 4.2 56.7 3 10.3-.6 20.8-1.6 30.9-4.3a134 134 0 0 0 39-17.4c8.7-6.3 15-15 21.4-23.6-6.6 5.7-12.6 11.2-20.3 15.5ZM391.5 147.3l-4.2-2.4 7.3 7a340.7 340.7 0 0 1 50.5 71.3c-8.6-31-23-61.4-53.6-76ZM18.6 152c5.3-8.4 19-25 29-31.4A100 100 0 0 1 75.5 106a95.2 95.2 0 0 1 21.2-2.5 69.2 69.2 0 0 0-23.6-2.9A78.2 78.2 0 0 0 44 111c-13.7 8-24 20.7-32 34.1a89.6 89.6 0 0 0-11 45c.8 19.6 8 38.5 18.3 55a300 300 0 0 0 38 44.2l15.1 14.5A518 518 0 0 1 27.1 242c-14.5-23.5-21.2-43.7-18.5-62.6a64 64 0 0 1 10-27.5Z"/><path fill-rule="evenodd" clip-rule="evenodd" d="M134.7 341.1c-1.8-3-3.7-6-5.8-8.9l-.6-.7-.5-.6 1.4-2.6c1.3-2.1 2.5-4.3 3.3-6.7.8-3.5.8-8.2-2.3-10.6a7 7 0 0 0-4.4 0 43.7 43.7 0 0 0-11.4 4.2A264.7 264.7 0 0 0 91.6 294c-1-.9-2.1-1.8-3.4-2.4-3.5-1.4-5 3.2-5.3 5.8a64.1 64.1 0 0 0 2.5 20.5c1 4.3 2.3 8.6 3.7 12.8l-4 2.8-.7.5-9.8 7c-3 2.3-6.4 4.9-7 8.9-.7 3.5-.5 8.3 2.9 10.4 3.6 1.2 7.5 1.5 11.4 1.8l2.4.2c5.3.4 10.6.4 16 .1 2.3 6.7 4.7 13.4 7.3 20 .2.9.7 1.7 1.3 2.4-.7-1.2-1-2.6-1.2-4l-.4-1.9-1.5-6.5-2.2-10.2c2 0 4.1-.2 6.2-.4-1.2 4.6-2.1 9.4-2.7 14.1 1.4-4.9 3.1-9.7 5.1-14.3a464.7 464.7 0 0 0 10.6-1.2l7.8-1c1.2-.2 2.4-.6 3.6-1a7 7 0 0 0 2.4-3c2-4.7.8-10-2-14.2Zm-44-32.9c4.8 4 9.3 8 13.6 12.4l-9.4 6c-1.7-6.7-3.2-13-4.2-18.4Zm2.5 34.4-8.4 5.7c3.5.2 7 .3 10.5.2l-2.1-6Zm7.3 5.8-2.3-9.2 4.7-3c3.1-2 6.8-4.2 10.5-6.2 1.6 1.8 3.4 3.7 5 5.7a230.1 230.1 0 0 0-4.3 11.6c-4.5.5-9 .9-13.6 1Zm19.8-3.5-1 1.9 7.2-1c-1-1.5-2.5-3.3-4-5.2l-.5 1-1.7 3.3ZM380.5 75.7c-1.2-2-3-3.5-5.2-4.4l-8-3.8c.3-14 .3-27.9-.3-41.8-.3-2-1.1-5.4-3.7-4.6a17.3 17.3 0 0 0-3.6 5 341 341 0 0 1-19.6 29.4 646.9 646.9 0 0 0-43.3-16.7c-1.8-.6-3.6-1.2-5.3-.4-4.3 3.3-3.8 10.2-1.7 14.6a64 64 0 0 0 9.8 12.5l.2.2c5.4 5.8 11.2 11.1 17 16.4l1.6 1.4 1 1a5872 5872 0 0 1-15 9.4 27 27 0 0 0-5.7 4 6 6 0 0 0 0 6.6 3 3 0 0 0 2.6.8c1.5 0 3-.3 4.6-.5 5.1-.9 10.2-2 15.3-3.1l5-1.2 9-2a3942 3942 0 0 0 12.6 11.1c4.2 3.7 10.2 9 14.2 5.6 3.4-3.3 3.8-8.2 4.1-12.7l.2-2.3.5-8.6 6.2-1.2c.5 0 1-.2 1.4-.3 1.4-.3 2.8-.6 4-1.3 4-2.9 4-9 2-13Zm-20-12.7v1.4l-9.3-4.1 5.6-6a57 57 0 0 0-8.4 4.8 242.4 242.4 0 0 1-4-1.7l-1.4-.6c6.5-6.2 12.5-12.8 18-19.8-.3 7.4-.4 16.6-.5 26Zm-55-7A1166.6 1166.6 0 0 0 337 85a225.8 225.8 0 0 1 23.2-6v-.5c-5.7-2.6-11.5-5-17.3-7.5l-3.5-1.5a55 55 0 0 1-5.6 3 94 94 0 0 1 3.5-3.9l-5-2.1a54 54 0 0 0-.7.6l.4-.5.1-.2c-8.8-3.6-17.6-7.2-26.6-10.5Zm5 38.4c3.3-3 6.5-6.2 9.6-9.4l4.5 4.1a556 556 0 0 0-14 5.3Zm38.5 1 1.8 1.7 1 .9c1.5 1.2 3.7 3.2 6.7 4.4h.5c.3-2.6.6-5.7.7-9.3L349 95.4Z"/></g></g></g><path d="M1295 694c-6.2-21.3-11.5-73.3-14.9-102-2.4-20.7-19.6-166.5-38.5-217.4-11.6-31.1-22.4-63-39.5-92.1-11.7-20-29.3-34.3-46-48.9a513 513 0 0 0-67-48.2c-30.9-19.2-63.4-23-97.6-11.7a32 32 0 0 0-21.9 24.3c-13.4 53.3-9.1 107.6-9.8 161.6-.8 69.8 3.1 139.5 5.2 209.2 1.8 57.2 0 66.7-.6 125.2h-14.5c-.9-32.2-.4-15.3-.6-47.5-.2-47.6-.8-95.1-1.6-142.7-.6-37.8-.3-75.7-2.8-113.5-2.6-39.6-2.7-79.1.7-118.6 2.5-28.2.1-57 11.3-84.3 9.4-23 28.3-31.8 49.9-33.5 22.4-1.7 45.7-4.8 69.8 9.3-4.8-16.6-15-24.7-22.6-34-28-34.2-65.5-55.5-103.6-76.8-39.3-22-80.7-19-122.6-17.4-6.5.3-12 3.8-17.8 6.7-7.5 4-15.3 7.3-26.6 4.8 9.5-13 22.1-17.3 35.1-21.1 37.1-10.8 73-5.2 95.7-1.8C943 28 1042.7 76 1089.7 151.5c22.3 35.9 85.8 36.4 143.6 157.6a528 528 0 0 1 34.7 100.7c10.9 44 39.5 252.6 39.5 284.2H1295ZM15.3 694c2-6.9 2.7-9.9 3.6-15.7 4.6-28.4 5.5-57.6 8.9-86.3 2.4-20.7 3.3-41.4 6-62 7.2-52.7 15.6-105 32.5-155.4 10.7-31.7 22.4-63 39.5-92.1 11.7-20 29.3-34.3 46-48.9 20.7-18 43.5-33.7 67-48.2 30.9-19.2 63.4-23 97.6-11.7a32 32 0 0 1 21.9 24.3c13.4 53.3 9.1 107.6 9.8 161.6.8 69.8-3.1 139.5-5.2 209.2-1.8 57.2.5 125 .5 125l14.6.2c.9-32.2.4-15.3.6-47.5.2-47.6.8-95.1 1.6-142.7.6-37.8.3-75.7 2.8-113.5 2.6-39.6 2.7-79.1-.7-118.6-2.5-28.2-.1-57-11.3-84.3-9.4-23-28.3-31.8-50-33.5-22.3-1.7-45.6-4.8-69.7 9.3 4.8-16.6 15-24.7 22.6-34 28-34.2 65.5-55.5 103.5-76.8 39.4-22 80.8-19 122.7-17.4 6.5.3 12 3.8 17.8 6.7 7.5 4 2.3 11.5 6.4.7 5.8-15-2-13.2-15-17-37-10.8-74-4-111 .5-7.4 1-14.8 4.4-21.5 8-51.4 27.8-116 77.2-138.6 117.6-12 21.6-30.7 32.8-47.5 47.7C111 252.3 95.3 263.8 74.6 309a573.6 573.6 0 0 0-34.7 100.7c-11 44-19.1 88.6-22.8 134.2-2.7 32.4-7.4 64.8-10.3 97.4-2 22.8-3.5 39.7-3.5 52.6h12Z" fill="#fff"/><path d="M1131.8 694c2-23.7-8-84.7-12.5-115.7-3.3-22.6-3-46-11.4-67.7-2.1-5.4-1.5-12.4 5.3-13.5 6.4-1 9.2 3.5 10.7 10.8 7.8 38.3 11.3 77.2 16 116 3.5 30 7.8 60 8.5 70l-16.6.1ZM193.3 694c1.4-23.6 8-84.7 12.6-115.7 3.3-22.6 3-46 11.4-67.7 2.1-5.4 1.5-12.4-5.3-13.5-6.4-1-9.3 3.5-10.7 10.8-7.8 38.3-11.3 77.2-16 116-3.6 30-5.7 70.1-5.7 70.1h13.7Z" fill="#fff"/><path d="M467.4 694.3S452.7 266.8 452.7 179c0-72.8 36.6-163 52-139.2 28.5 43.8 77.2 58.4 149.7 61.5 115 5 120.9-41.3 136.6-50 31.4-17.6 52.7 66 52.7 141.4V694" stroke="#fff" stroke-width="15"/></g><g transform="translate(266 207)"><path d="M829.6 275a191.3 191.3 0 0 1 18.7 70.6c.7 8.5 8.4 11 11.2 17.9 10.6 25.8 1.5 49.3-6.6 73-3.5 10.5-9.9 19.9-12.2 30.9-1.2 5.6-5.2 5.7-10.6 3.5 6-19 9.6-38 4.4-57.7a178 178 0 0 0-15.9-38.7c-3.4-6.4-10.6-6.7-15.2-10.7-9.3-8-21.1-12.8-28.8-23-3.7-4.8-9-4.3-13.5-.2a181.7 181.7 0 0 1-74.6 41.5c-35.3 10-71 19.6-108.4 21-32 1.2-63.7 2.2-95.3-2.5-5-.8-8.5 1.2-10.2 5.7-12.5 33.8-36.3 59-63 81.8a65.5 65.5 0 0 0-21.5 40.5c-2.3 12.5-5.6 24.8-6 37.7-8.7.6-8.3-4.9-8.6-10-1.8-30-29.8-63-59.4-70-9.7-2.2-24 7-30.6 20.2-2.9 5.7-4.9 11.8-12.2 14.6-10.4-13.8-9.5-30.6-12.6-45.9-6.7-33.5-1-66.8 5.4-100a308 308 0 0 1 37.2-92.8 277.3 277.3 0 0 1 82.3-92.4c23.4-16.2 47.2-31.2 74.8-39.5 18.1-5.5 33.1-17.3 49.6-26.2 17.2-9.3 33.8-17.4 53.8-15.3 13.3 1.4 23.3-1.7 30.8-14.9 5.5-9.5 16.2-13.5 28.8-11.7 19.7 2.8 38.8 8.5 59 9.8 30.8 2 55.8 17.9 78 38.5 24.4 22.5 40 49.7 47.5 82 3 12.9 5.6 25.7 7.4 38.7 1.4 9.7 11.2 14.6 16.3 23.5Z" fill="#000"/></g><g transform="translate(791 871)"><path fill-rule="evenodd" clip-rule="evenodd" d="M88 70.6a153.5 153.5 0 0 0 115.3-.2c4.1-1.8 8.8-4 12.4 1.5 4.2 6.4.6 12.2-3.4 17.4A71.8 71.8 0 0 1 203 100c-3.8 3.4-9 7.4-13.6 3.4-8.8-7.6-14.7-5.6-22.7 1.7-11.3 10.2-21 4.5-27.6-7-21.8 14.3-21.8 14.3-32.7 1.8h-.9c-.6-.1-1.3-.1-1.6.2-14.7 12.7-17.9 11.3-24-8.6l-1-5c-1.4-6.7-2.7-13.5-12.1-14.9.4-4.5 3.2-7.5 6.3-10.2 3.1.4 5 2.4 7 4.5 2 2.2 4.1 4.4 7.7 4.8Zm11 14.3a22.3 22.3 0 0 0-13.5-6.3c-1.3 6 1.1 10.1 3.4 14.3l2.3 4.2c6-1.6 7.8-5.5 7.8-12.2Zm27.6 8.8c1.8 6-2.6 8.1-8 7.9-4.3-2.8-4.5-6-4.8-9.2 0-1 0-2-.3-3 6.2-1.9 11.4-1.2 13 4.3Zm36.8 4.4c1.7-7.5-2-6.8-5.6-6-1.4.2-2.8.4-3.8.2-2.4-.6-5.3.5-5.2 3.8.2 5.2 4.3 5.8 8.1 5.7 1.9 0 3.7-1.4 6.5-3.7Zm29-2.4c-3.8-4.7-5-8.8 1.5-12.1 4.6-1.3 8.7-2.3 8.5 2-.3 5.2-3.6 9.2-10 10Z" fill="#000"/></g><g transform="translate(653 805)"></g><g transform="translate(901 668)"><path d="M109.6 185c-9.9 23.2-31.7 22.6-50.5 27.2-5.4 1.5-11.1 1-16.2-1.5.1-8.5 5.5-10.3 12-10.1 10.5.2 19.9-4 29.3-7.7 8.5-3.3 12-8.2 6.4-17.6-9-15.2-17.7-30.6-21.7-48.3a87.5 87.5 0 0 1 1.8-46.4c1.3-4 1.9-9.1 8-7.3 5 1.5 4.3 5.9 3.3 9.6-9.2 33 5 60 22.2 86.1 3 4.8 6.1 9.1 5.4 16Z" fill="#000"/></g><g transform="translate(610 680)"><path d="M215.1 76.6c5-12 9-29.4 24.1-22.5 20.7 9.4 13.9 30.7 9.7 47.4-1.6 6.3-14.5 15.9-18.3 14.3-16.3-6.8-19.2-21.7-15.5-39.2ZM442 113.4c-8.6 7.5-17 7.6-22.2-1.5-9-16-8.6-32.8 3.3-47.2 2.5-3 13.8-3.6 16.3-1 14 15 14.6 31.8 2.6 49.7Z" fill="#000"/></g><g transform="translate(610 680)"></g><g transform="translate(774 657)"><path d="M15 39C23.8 24.6 37 20.4 51.9 19c23.2-2.3 44 8.5 65.9 12.8 8 1.5 6.8 7.5 1.4 10.7-9.4 5.7-19.5 11-31.2 7-22.5-7.6-45.1-12-68.6-4.1-6.2 2-5-2-4.2-6.3ZM255 29c15-2.6 28.7-5.3 42.2 1.5 10.8 5.5 15 14 12.9 25.5-5 3.1-7.5-.4-10.6-2.5-11.6-7.9-23.9-10-37.3-4.6-9.3 3.7-19.2 2.4-29 2.4-4.7 0-8.4-1.8-8.7-7-.4-5.5.9-10.8 6.9-12 7.3-1.7 15-2.2 23.7-3.3Z" fill="#000"/></g><g transform="translate(0 559)"><path d="m1724 1191.5-235.9 2.6s-64.3-75.3-31.2-274.1c4.8-28.8-15.4-210.2-16-224-1.9-36.3-15-106-32.4-133.5-78-124-65.6-142.6-69.3-170.7-3.9-29.7-10.5-81.2-15.3-101-2.2-9.2-18.2-74.1-.3-76 85.2-9.2 56.6 151.8 89.4 138.7 50.2-20 64-83.6 64-83.6s75.1-171.2 109.4-171.2c14 0-7.3 88.5-7.3 88.5s77.8-91.2 94.5-90.2c16.7 1-12.2 70.5-12.2 70.5s36.5-28.2 49.8-18c17.6 13.6-76 151.2-62.2 152 10.5.5 30.8-34 44-39.8 22-10 29.9-11.8 30.7 8.3 1 21.3-47.7 85.6-70.3 121.8-11.7 18.7-80.9 127.4-96 157.3-19.2 37.7 18.5 101 33.8 131.5 15.2 30.5 74.1 207.2 94.9 239.3 20.7 32.2 40.8 83.9 47.7 138.7 7.5 60.7-9.7 132.9-9.7 132.9Z" fill="#fff"/><path fill-rule="evenodd" clip-rule="evenodd" d="M1429.3 663a867 867 0 0 0 3 22l-3-27.6c-3.5-31.3-7-62.1 8.3 70.8 1.2 10.1 2 20.3 3 30.5 3.3 40.3 4.2 80.7 5 121.1.2 4.6 1.2 9.3 2.2 13.9a47.1 47.1 0 0 1 1.7 18.7c-2 10.7-3.1 21.5-4.2 32.3-1.5 15.8-3 31.6-7.8 47-2.2 7-2.4 14.1-2.4 21.4.1 41.7 4 82.8 17.2 122.8 7 21.2 15.6 41 30.9 58.2h11.7c-3.2-10.7-8.5-20.3-13.7-30-3.7-6.6-7.3-13.2-10.3-20.2-8.1-19.4-13.4-40-15.6-61v-.7c-2.2-19.5-4.4-39.2-3.6-59 .6-12.4 1.8-24.3 10-35.4 2.9 9.4 5.6 18.7 8.3 28 18.1 62.7 36.1 125 79.4 177.5 5.6.8 11.3.8 16.9 0a321.4 321.4 0 0 1-64.3-119.8l-4.7-15.1c-11-36-22.2-72.3-26.7-110-1.2-9.8-2.9-19.5-4.6-29.2-2.4-14.2-5-28.4-5.7-42.7l-1.8-32.4c-3.2-58.3-6.4-116.7-13.9-174.8-5.7-45-18.6-88.8-38.2-129.7-8.4-17.4-18.1-34.2-27.8-51-7-12.2-14-24.4-20.6-36.8-1.4-2.6-3-5.1-4.5-7.7-5-7.8-10-15.8-8.9-26 4-41.1-4.1-80.8-12.3-120.5l-3.7-18.1c-3.2-16.2-6-32.7-4.8-49.4.7-10.2 6.4-13.7 14.2-8.3a114.8 114.8 0 0 1 42.4 59.8c6.4 19.3 8.4 40.7 8.8 61.7.4 15.7 11.5 22.4 26.5 18 17.9-5.5 28.7-19.2 39.5-32.8l.8-1c10-12.8 16.2-27.7 22.3-42.6 2.4-5.8 4.7-11.6 7.4-17.3a1384.4 1384.4 0 0 1 65.6-126.7c8-13.6 16.3-27.9 34-34.2l-3 17.7c-7.2 42.3-14.1 83.8-30.2 123.3l6.3 3c28.1-55.9 60.3-108.7 110.5-148.6a26 26 0 0 1 1.5 18.6c-5 22.7-16.3 42.5-27.6 62.3-4 7-8 14-11.8 21.2-5.1 9.7-11 19.1-16.8 28.5a707 707 0 0 0-11.2 18.4l-.3.6c-2.6 4.6-5.7 9.8-1.5 15.1 4.2-.4 5.7-2.9 7-5.2l.4-.5a469 469 0 0 1 30.7-46.9l7.8-10.3c12.7-16.8 25.4-33.7 42.6-46.6l2-1.5c4.6-3.6 9.5-7.4 14.6-2.8 6 5.4 4 13.5.3 20-5.1 9.3-10.4 18.5-15.7 27.7-7 12-14 24.2-20.6 36.5l-7.8 14.3a2535.2 2535.2 0 0 0-33.3 62.9c-2.2 4.2-3.7 8.7 2.9 13.4a186 186 0 0 0 32-30.2c13.4-14.8 26.9-29.8 46.1-38.3 6.1 8.5 7.7 16 .8 26.2a1436.3 1436.3 0 0 0-30.4 47c-6.6 10.7-13.3 21.3-20.2 31.8-6.2 9.5-11.6 19.5-17 29.4-7.4 13.5-14.8 27-24 39.3a682.4 682.4 0 0 0-59.4 97.2c-15.5 30.3-12.6 60.4-2.5 90 12 35.4 28 69.5 44.5 103.3a598.8 598.8 0 0 1 30.2 81.4 3786.8 3786.8 0 0 0 5 16c8.2 25.4 16.4 51 22.7 77.2l4.6 18.7a557.3 557.3 0 0 1 13.9 67c4.1 33.3 3.7 66.8 0 100.4l-1.5 13c-3.6 34-7.1 67.7-27.2 96.9h34.6c46.8-83.9 30.3-168.9 3.2-254a103.9 103.9 0 0 1 22.2 45.1 625.3 625.3 0 0 1 13.8 67.3 342 342 0 0 1-6.1 137c-.5 1-1 2.1-1 3.7 3.9.9 8 .9 11.8 0l.7-1.3a70.5 70.5 0 0 0 7.8-21c3.8-25.2 6.5-50.6 6.5-76 0-38.4-9.2-75.7-18.5-112.8-.6-2.2-1-4.6-1.5-6.9-1.1-5.5-2.2-11-5-16.2-11.3-22-22.4-44.3-33.4-66.5l-20.5-41.2a572.8 572.8 0 0 1-29.8-76.5 705.2 705.2 0 0 0-23.6-63.5 873.1 873.1 0 0 1-15.8-38.8c-6.8-17.3-13.6-34.6-21.7-51.2-12.6-25.6-15.6-50.6-6-77 8.3-23.3 22-43.5 35.7-63.7 4.6-6.8 9.2-13.5 13.6-20.4 5-7.7 10.2-15.3 15.5-23a430.3 430.3 0 0 0 24.8-38.6c11.7-21.3 24.8-41.8 37.8-62.2a1737.1 1737.1 0 0 0 21-33.3c7-11.5 14.2-23.2 12.7-37.6-1.9-18-12.2-23.2-28.5-15.5-6.9 3.3-12.8 7.8-18.8 12.4-4.5 3.4-9 6.8-13.8 9.7a45.6 45.6 0 0 0 8.9-16c1.4-3.4 2.7-7 4.6-10.1a1100 1100 0 0 0 38-70.4 26.6 26.6 0 0 0-4.7-31c-7.2-7.2-16.9-6.1-25.7-.3a38.7 38.7 0 0 1-8 3.6l-3.7 1.5a56.7 56.7 0 0 0 8.7-38c-.2-6.8-.4-13.6-7.5-17a20.7 20.7 0 0 0-22.7 2.8 318.2 318.2 0 0 0-44.7 44.3l-1.7 1.8c-3 3.5-5.9 7.2-8.7 11-4.9 6.4-9.8 13-16.2 18.3 6.6-19 9.4-38.5 12.3-57.9a101.8 101.8 0 0 1 .8-5c1-5.7 2.1-11-4.1-15-6.8-4.4-13.2-1.4-19.2 2.2-17.1 10.5-28.3 26.5-38.2 43.3a939.6 939.6 0 0 0-41 80.1c-3.5 7.6-7.3 15-11 22.5a486 486 0 0 0-22.5 50.1 108 108 0 0 1-41.1 52.6c-10 6.8-17.8 3.3-19-7.6l-1-9.3c-2.5-23.6-4.9-47-15.7-69.7-8.8-18.7-19-34.5-35.7-46-14.7-10.3-30.5-7.4-35 6.2a55.8 55.8 0 0 0-3 20c1 22.1 5.8 43.5 10.5 65a751 751 0 0 1 7 33.8c.7 4.3 1.6 8.7 2.6 13 2.9 13.8 5.8 27.5 3.3 42.3a100.1 100.1 0 0 0 0 35.5c4 20.8 14.4 38.7 24.7 56.5 6.2 10.7 12.4 21.4 17.2 32.8a522.4 522.4 0 0 0 22.5 44.5l10.4 19.4c13.5 26 17 53.5 20.5 81.1Zm269.3 396.4.1 2.4c2.2 30.8-4.6 58.3-12 85.7 5.1-20.3 6.2-41.1 7.3-62 .5-10.8 1-21.5 2.2-32.3 2.5 1.6 2.4 4 2.4 6.2Z" fill="#000"/><path d="M1511.1 397.6c-2.9 24-8.6 45.7-22.8 65.2-6-5.5-5.1-9.9-3.5-13.7 15.6-36.6 14.3-75.6 17-114l.2-6.4c0-4.1.4-8 6-7.9 5.4.1 6 4.6 6 8.2 0 14.4.5 29-1.2 43.3-.9 8-1.4 16-1.7 25.3ZM1530.8 532.9c4.8-2.8 9.2-4.3 11.6.8 1.8 3.5-1.7 5.7-4 8.3a91.9 91.9 0 0 1-28.1 23 26.3 26.3 0 0 1-24.3-.3c-3-1.4-4.5-3.8-4-7.2.5-4 3.6-4.1 6.6-4 17.3.5 30-8.5 42.2-20.6ZM1557.1 391c5.7-2 10.6-3 14.8 1-6.3 10.5-29.9 22.2-40.7 20.2 3.3-13.3 16.3-14.6 26-21.3Z" fill="#000"/></g></g></svg>